<svg xmlns:dc="http://purl.org/dc/elements/1.1/" xmlns:cc="http://creativecommons.org/ns#" xmlns:rdf="http://www.w3.org/1999/02/22-rdf-syntax-ns#"  xmlns:sodipodi="http://sodipodi.sourceforge.net/DTD/sodipodi-0.dtd" xmlns:inkscape="http://www.inkscape.org/namespaces/inkscape" xmlns="http://www.w3.org/2000/svg" id="svg2" version="1.1" inkscape:version="0.48.4 r9939" width="110" height="80.000008" xml:space="preserve" sodipodi:docname="UiotModeloOriginalColorsWhite.svg"><metadata id="metadata8"><rdf:RDF><cc:Work rdf:about=""><dc:format>image/svg+xml</dc:format><dc:type rdf:resource="http://purl.org/dc/dcmitype/StillImage"/><dc:title/></cc:Work></rdf:RDF></metadata><defs id="defs6"/><sodipodi:namedview pagecolor="#ffffff" bordercolor="#666666" borderopacity="1" objecttolerance="10" gridtolerance="10" guidetolerance="10" inkscape:pageopacity="0" inkscape:pageshadow="2" inkscape:window-width="1545" inkscape:window-height="876" id="namedview4" showgrid="false" inkscape:zoom="9.1125" inkscape:cx="85.900758" inkscape:cy="22.485645" inkscape:window-x="55" inkscape:window-y="24" inkscape:window-maximized="1" inkscape:current-layer="g10" fit-margin-top="0" fit-margin-left="0" fit-margin-right="0" fit-margin-bottom="0"/><g xmlns:inkscape="http://www.inkscape.org/namespaces/inkscape" xmlns="http://www.w3.org/2000/svg" id="g10" inkscape:groupmode="layer" inkscape:label="UIoTModelo" transform="matrix(1.25,0,0,-1.25,-0.14117203,79.956053)">
     <path d="m 13.317747,63.034652 c -4.6573904,-1.37091 -10.89956,-7.47783 -12.29036,-12.05803 -2.00524002,-6.51196 -1.06736001,-10.43784 6.4039,-26.63994 3.29904,-7.10405 4.20466,-9.72121 4.20466,-12.0893 0,-2.025229 0.25874,-3.02237 0.80863,-2.96001 0.45273,0 4.17222,0.37396 8.24744,0.779021 l 7.4388,0.71662 0.19401,2.180999 c 0.12944,1.21513 2.36097,7.22863 4.98083,13.39789 2.61971,6.16927 5.11013,12.49435 5.53057,14.02107 4.01048,14.51957 -10.25267,27.16969 -25.51864,22.65188 l 1.2e-4,-2.4e-4 z m 13.97219,-3.39614 c 5.1101,-2.61732 8.70033,-7.5091 9.34706,-12.83704 0.42043,-3.52083 -0.97037,-7.8518 -7.27711,-22.30899 l -4.04293,-9.34743 -5.27183,0 -5.23958,0 -3.59004,7.78944 c -9.76749,21.21859 -10.34966001,25.76767 -4.13992,32.59121 4.98084,5.45264 13.97216,7.29099 20.21435,4.11281" style="fill: white;fill-opacity:1;fill-rule:evenodd;stroke:none;" id="path12" inkscape:connector-curvature="0"/>
     <path d="m 53.186267,22.739132 c -0.90646,-0.87327 -0.48801,-2.7877 0.66233,-3.22432 1.46426,-0.53734 2.54505,0.47012 2.23136,2.08238 -0.2789,1.27637 -2.02221,1.98165 -2.89369,1.14194" style="fill: white;fill-opacity:1;fill-rule:evenodd;stroke:none;" id="path14" inkscape:connector-curvature="0"/>
     <path d="m 78.951157,21.395542 c -1.01101,-0.97396 -0.48801,-17.33105 0.59278,-18.84237 1.2899,-1.78019991 4.39293,-2.4855199 6.90319,-1.5785499 2.85894,1.0411699 1.88272,2.3847599 -1.74312,2.3847599 l -3.06805,0 -0.20914,5.54185 -0.20912,5.54185 3.17263,0 c 2.78914,0 3.17258,0.16795 3.17258,1.44431 0,1.27637 -0.27889,1.3771 -3.13779,1.07472 l -3.13783,-0.33592 0,2.58624 c 0,2.48548 -1.01102,3.42597 -2.33593,2.18311 l -2.3e-4,0 z" style="fill: white;fill-opacity:1;fill-rule:evenodd;stroke:none;" id="path16" inkscape:connector-curvature="0"/>
     <path d="m 35.509897,16.122362 c -0.59278,-1.54505 0.24414,-11.4533 1.11559,-13.06537 1.04603,-1.8472099 4.70663,-2.7876899 8.40244,-2.18308991 l 3.13782,0.50382001 0.20912,7.8929099 c 0.17432,7.52351 0.10457,7.85943 -1.22035,7.85943 -1.35968,0 -1.42943,-0.40314 -1.42943,-7.053379 l 0,-7.053391 -2.71941,0 c -3.80016,0 -4.53246,1.20915 -4.95073,7.92661 -0.34867,5.57557 -1.46426,7.85943 -2.54505,5.17246" style="fill: white;fill-opacity:1;fill-rule:evenodd;stroke:none;" id="path18" inkscape:connector-curvature="0"/>
     <path d="m 53.395387,9.102682 c 0,-7.3220499 0.10457,-8.0945499 1.25514,-8.0945499 1.84789,0 1.8129,15.6515699 -0.0348,15.9874999 -1.11558,0.20145 -1.22035,-0.53738 -1.22035,-7.89295" style="fill: white;fill-opacity:1;fill-rule:evenodd;stroke:none;" id="path20" inkscape:connector-curvature="0"/>
     <path d="m 63.297067,16.088852 c -5.19487,-3.5267 -4.60208,-12.56152 0.94123,-14.8118499 6.55456,-2.6197501 12.13282,3.1235499 10.07581,10.4456299 -1.32488,4.76932 -7.04275,7.01965 -11.01727,4.36641 l 2.3e-4,-2.3e-4 z m 6.20584,-1.84742 c 2.96351,-2.18311 3.55626,-6.65027 1.28995,-9.43794 -3.13784,-3.8288699 -8.3327,-1.07471 -8.3327,4.39992 0,4.33274 4.07909,7.25484 7.04275,5.03802" style="fill: white;fill-opacity:1;fill-rule:evenodd;stroke:none;" id="path22" inkscape:connector-curvature="0"/>
     <path d="m 22.632547,7.947542 c -2.29643,-0.28036 -5.75701,-0.68556 -7.633,-0.90356 -3.04031,-0.37394 -5.1425404,-2.55497 -2.39342,-2.46151 6.69493,0.15581 15.84814,1.80723 15.84814,2.83531 0,0.65428 -0.3557,1.15276 -0.80863,1.0906 -0.45269,-0.0311 -2.68441,-0.28034 -5.01309,-0.56084" style="fill: white;fill-opacity:1;fill-rule:evenodd;stroke:none;" id="path24" inkscape:connector-curvature="0"/>
     <path d="m 23.279437,3.273712 c -0.51744,-0.1247 -2.97561,-0.37393 -5.40129,-0.62321 -4.10747,-0.37393 -4.36621,-0.46738 -3.42833,-1.4019799 1.71429,-1.62018 8.66791,-1.74491 11.25532,-0.15582 3.33131,1.9941199 2.10224,3.1157999 -2.4257,2.1810099" style="fill: white;fill-opacity:1;fill-rule:evenodd;stroke:none;" id="path26" inkscape:connector-curvature="0"/>
   </g></svg>