<svg width="102" height="125" xmlns="http://www.w3.org/2000/svg">
 <style type="text/css">.st0{fill:white;}
	.st1{fill:#8385D0;}
	.st2{fill:#6F71BC;}
	.st3{display:none;}
	.st4{display:inline;fill:#4D4D4D;}
	.st5{display:inline;fill:#6B6B6B;}
	.st6{display:inline;fill:#F2F2F2;stroke:#808080;stroke-width:13;stroke-miterlimit:10;}
	.st7{display:inline;fill:#808080;}
	.st8{display:inline;fill:#F2F2F2;stroke:#FFFFFF;stroke-width:13;stroke-linejoin:round;stroke-miterlimit:10;}
	.st9{display:inline;fill:#FFFFFF;stroke:#FFFFFF;stroke-width:13;stroke-linejoin:round;stroke-miterlimit:10;}
	.st10{display:inline;fill:none;stroke:#F48990;stroke-width:4;stroke-linecap:round;stroke-linejoin:round;stroke-miterlimit:10;}
	.st11{display:inline;fill:#F2F2F2;stroke:#808080;stroke-width:13;stroke-linecap:round;stroke-miterlimit:10;}
	.st12{display:inline;fill:#CCCCCC;}
	.st13{display:inline;fill:#DB4545;}
	.st14{display:inline;fill:#FFFFFF;}</style>

 <g>
  <title>background</title>
  <rect fill="none" id="canvas_background" height="127" width="104" y="-1" x="-1"/>
 </g>
 <g>
  <title>Layer 1</title>
  <path id="svg_1" d="m50.499999,62.200003c10.7,0 19.5,8.7 19.5,19.4s-8.7,19.4 -19.5,19.4c-10.7,0 -19.5,-8.7 -19.5,-19.4s8.8,-19.4 19.5,-19.4m0,-21.7c-22.8,0 -41.2,18.4 -41.2,41.2s18.4,41.2 41.2,41.2s41.2,-18.4 41.2,-41.2s-18.5,-41.2 -41.2,-41.2l0,0z" class="st2"/>
  <g id="svg_2">
   <path id="svg_3" d="m20.399999,39.300003c-1.9,0 -3.8,-0.7 -5.2,-2.2l-11.4,-12c-2.7,-2.9 -2.6,-7.4 0.2,-10.1c2.9,-2.7 7.4,-2.6 10.1,0.2l11.4,12c2.7,2.9 2.6,7.4 -0.2,10.1c-1.3,1.4 -3.1,2 -4.9,2z" class="st1"/>
  </g>
  <g id="svg_4">
   <path id="svg_5" d="m81.699999,39.300003c-1.8,0 -3.5,-0.7 -4.9,-2c-2.9,-2.7 -3,-7.2 -0.2,-10.1l11.4,-12c2.7,-2.9 7.3,-3 10.1,-0.2c2.9,2.7 3,7.2 0.2,10.1l-11.4,12c-1.5,1.5 -3.4,2.2 -5.2,2.2z" class="st1"/>
  </g>
  <g id="svg_6">
   <path id="svg_7" d="m50.899999,31.900003c-0.1,0 -0.1,0 -0.2,0c-3.9,-0.1 -7.1,-3.4 -7,-7.3l0.4,-16.6c0.1,-3.9 3.4,-7.1 7.3,-7c3.9,0.1 7.1,3.4 7,7.3l-0.4,16.6c-0.1,3.9 -3.3,7 -7.1,7z" class="st1"/>
  </g>
 </g>
</svg>