<?xml version="1.0" standalone="no"?>
<!DOCTYPE svg PUBLIC "-//W3C//DTD SVG 20010904//EN"
 "http://www.w3.org/TR/2001/REC-SVG-20010904/DTD/svg10.dtd">
<svg version="1.0" xmlns="http://www.w3.org/2000/svg"
 width="1500.000000pt" height="1500.000000pt" viewBox="0 0 1500.000000 1500.000000"
 preserveAspectRatio="xMidYMid meet">

<g transform="translate(0.000000,1500.000000) scale(0.100000,-0.100000)"
fill="#000000" stroke="none">
<path d="M3585 13730 c-262 -42 -453 -283 -431 -545 30 -363 403 -579 732
-424 262 123 367 463 222 718 -39 68 -121 150 -189 189 -96 54 -230 79 -334
62z m166 -50 c239 -45 412 -291 371 -528 -11 -69 -68 -196 -100 -225 -19 -17
-22 -15 -88 51 -91 91 -152 116 -279 116 -124 0 -187 -25 -274 -110 -72 -71
-74 -71 -118 3 -40 68 -63 156 -63 238 0 289 265 508 551 455z"/>
<path d="M3575 13511 c-66 -41 -95 -92 -95 -167 0 -126 128 -214 245 -170 24
10 59 35 79 56 78 87 49 233 -58 284 -47 22 -133 21 -171 -3z"/>
<path d="M4550 13495 c0 -11 12 -15 45 -15 25 0 45 -2 45 -5 0 -3 -16 -37 -35
-75 -37 -73 -41 -90 -25 -90 13 0 101 180 94 191 -3 5 -32 9 -65 9 -46 0 -59
-3 -59 -15z"/>
<path d="M4592 13175 c-52 -29 -98 -57 -103 -62 -7 -7 175 -123 195 -123 3 0
6 27 6 60 l0 60 1273 -2 1272 -3 57 -21 c117 -45 187 -112 229 -223 18 -47 23
-83 27 -223 4 -156 6 -168 23 -168 18 0 19 10 19 164 0 135 -3 175 -20 228
-34 112 -96 185 -200 238 -112 57 -37 54 -1412 57 l-1267 4 -3 34 -3 34 -93
-54z m48 -70 l0 -36 -30 16 c-36 19 -38 28 -7 43 34 16 37 15 37 -23z"/>
<path d="M4543 12850 c-34 -20 -63 -66 -63 -100 0 -11 -4 -20 -10 -20 -6 0
-10 -48 -10 -125 l0 -125 160 0 160 0 0 125 c0 77 -4 125 -10 125 -5 0 -10 7
-10 16 0 31 -34 87 -64 105 -41 25 -112 25 -153 -1z m117 -35 c31 -16 50 -43
50 -69 0 -13 -15 -16 -90 -16 -80 0 -90 2 -90 18 0 37 46 79 88 81 7 1 26 -6
42 -14z m70 -210 l0 -75 -115 0 -115 0 0 75 0 75 115 0 115 0 0 -75z"/>
<path d="M7071 12603 c-37 -19 -71 -66 -71 -101 0 -12 -7 -25 -15 -28 -12 -5
-15 -29 -15 -130 l0 -124 165 0 165 0 0 124 c0 101 -3 125 -15 130 -8 3 -15
16 -15 28 0 57 -71 118 -137 118 -15 0 -43 -8 -62 -17z m110 -43 c19 -10 49
-59 49 -80 0 -6 -36 -10 -96 -10 l-96 0 6 28 c14 57 85 89 137 62z m69 -215
l0 -75 -115 0 -115 0 0 75 0 75 115 0 115 0 0 -75z"/>
<path d="M3420 12477 c0 -83 10 -104 57 -113 26 -5 37 -1 57 19 23 23 26 34
26 97 0 55 -3 70 -15 70 -11 0 -15 -17 -17 -71 -2 -55 -7 -74 -20 -83 -13 -8
-23 -8 -35 0 -14 9 -19 28 -21 83 -2 54 -6 71 -17 71 -12 0 -15 -16 -15 -73z"/>
<path d="M3606 12477 c-26 -19 -15 -45 24 -59 39 -13 33 -34 -9 -30 -37 3 -42
-15 -5 -24 34 -9 76 11 72 34 -2 9 -18 24 -35 32 -38 18 -37 36 2 32 19 -2 26
1 23 10 -6 18 -50 21 -72 5z"/>
<path d="M3732 12474 c-23 -16 -29 -53 -12 -84 11 -21 53 -34 81 -25 31 10 22
24 -18 27 -56 5 -55 28 1 28 52 0 60 16 26 50 -24 24 -48 25 -78 4z m58 -19
c11 -13 8 -15 -20 -15 -28 0 -31 2 -20 15 7 8 16 15 20 15 4 0 13 -7 20 -15z"/>
<path d="M3850 12425 c0 -51 3 -65 15 -65 11 0 15 11 15 40 0 29 5 43 20 52
11 7 20 18 20 25 0 16 -12 17 -27 2 -8 -8 -13 -8 -17 0 -17 26 -26 6 -26 -54z"/>
<path d="M7892 12464 c-25 -17 -31 -49 -7 -40 12 4 15 -5 15 -53 0 -51 -3 -59
-21 -64 -37 -10 -10 -27 42 -27 37 0 49 4 49 15 0 8 -9 15 -20 15 -18 0 -20 7
-20 85 0 47 -3 85 -8 85 -4 0 -18 -7 -30 -16z"/>
<path d="M7475 12413 c69 -119 90 -153 96 -153 4 0 22 26 39 58 18 31 44 76
57 100 l25 42 -122 0 -122 0 27 -47z m125 -8 c0 -11 -24 -55 -30 -55 -6 0 -30
44 -30 55 0 3 14 5 30 5 17 0 30 -2 30 -5z"/>
<path d="M7455 11999 c-300 -43 -571 -252 -685 -529 -28 -67 -55 -171 -65
-250 l-5 -45 -78 3 c-304 14 -574 -199 -636 -501 -30 -145 -14 -266 55 -407
78 -159 240 -288 419 -331 45 -11 285 -14 1285 -14 l1230 0 64 23 c179 65 303
209 333 389 45 267 -142 523 -414 565 l-76 12 -7 43 c-9 65 -60 156 -116 208
-71 66 -146 99 -241 103 l-76 4 -12 52 c-103 441 -533 739 -975 675z m185 -44
c0 -2 -31 -48 -68 -102 -38 -54 -81 -117 -97 -141 l-28 -43 139 -140 139 -139
-130 -130 -130 -130 110 -110 109 -109 -24 -26 -23 -25 146 0 147 0 0 55 c0
30 2 55 5 55 9 0 225 -125 225 -130 0 -4 -196 -117 -222 -128 -4 -2 -8 17 -8
42 l0 45 -175 3 -176 3 -47 -48 -46 -47 114 -115 115 -115 -118 -118 -117
-117 105 -105 105 -104 -32 -33 -32 -33 -535 0 c-432 0 -550 3 -606 15 -268
56 -465 294 -465 562 0 100 15 164 62 262 71 148 212 263 378 306 50 13 92 16
178 12 l112 -4 0 49 c0 119 55 291 132 410 57 89 189 215 279 265 81 46 197
88 281 102 57 9 198 14 198 6z m500 -735 c0 -47 3 -60 15 -60 8 0 15 -7 15
-15 0 -8 -7 -15 -15 -15 -9 0 -15 -9 -15 -25 0 -18 -5 -25 -20 -25 -15 0 -20
7 -20 25 0 23 -4 25 -45 25 -25 0 -45 4 -45 9 0 6 19 39 41 75 32 51 47 66 65
66 23 0 24 -3 24 -60z m-70 -810 c0 -83 -1 -90 -20 -90 -19 0 -20 7 -20 90 0
83 1 90 20 90 19 0 20 -7 20 -90z m240 79 c0 -7 -8 -18 -17 -25 -17 -13 -17
-13 0 -14 21 0 23 -30 2 -30 -11 0 -15 -12 -15 -50 0 -42 -3 -50 -19 -50 -16
0 -19 10 -23 63 -4 50 -1 67 14 90 19 27 58 38 58 16z m320 1 c0 -5 0 -13 0
-17 0 -4 -13 -8 -30 -9 -28 -2 -40 13 -23 29 10 11 53 8 53 -3z m370 -6 c0 -9
-7 -14 -17 -12 -25 5 -28 28 -4 28 12 0 21 -6 21 -16z m-790 -54 c5 -10 10
-39 10 -64 0 -39 -3 -46 -20 -46 -17 0 -20 7 -20 44 0 25 -5 48 -12 52 -16 10
-38 -25 -38 -63 0 -26 -4 -33 -20 -33 -18 0 -20 7 -20 64 l0 64 55 1 c44 0 57
-3 65 -19z m218 8 c7 -7 12 -22 12 -35 0 -20 -5 -23 -41 -23 -28 0 -39 -4 -36
-12 2 -7 18 -13 35 -13 36 0 52 -12 32 -25 -24 -15 -72 -12 -92 7 -22 20 -23
70 -1 95 18 20 73 24 91 6z m62 0 c0 -9 3 -9 12 0 7 7 18 12 25 12 20 0 15
-24 -7 -38 -15 -9 -20 -23 -20 -52 0 -33 -3 -40 -20 -40 -18 0 -20 7 -20 65 0
51 3 65 15 65 8 0 15 -5 15 -12z m167 -17 c16 -33 9 -41 -38 -41 -28 0 -39 -4
-36 -12 2 -8 19 -12 41 -11 31 2 37 -1 34 -15 -5 -25 -74 -29 -99 -6 -24 21
-25 71 -2 96 25 28 84 21 100 -11z m143 9 c5 -10 10 -39 10 -64 0 -39 -3 -46
-20 -46 -17 0 -20 7 -20 44 0 25 -5 48 -12 52 -16 10 -38 -25 -38 -63 0 -26
-4 -33 -20 -33 -18 0 -20 7 -20 64 l0 64 55 1 c44 0 57 -3 65 -19z m139 7 c15
-19 3 -28 -27 -20 -33 8 -56 -20 -41 -49 9 -16 17 -19 45 -13 26 4 34 2 34 -8
0 -18 -21 -27 -60 -27 -29 0 -70 38 -70 65 0 7 9 24 21 39 23 29 78 36 98 13z
m61 -52 c0 -58 -2 -65 -20 -65 -18 0 -20 7 -20 65 0 58 2 65 20 65 18 0 20 -7
20 -65z m124 43 c9 -12 16 -41 16 -65 l0 -42 -57 2 c-52 2 -58 4 -61 25 -5 32
15 52 50 52 19 0 27 4 22 11 -3 6 -17 9 -30 6 -14 -2 -27 0 -30 4 -21 35 67
41 90 7z"/>
<path d="M7170 10929 c-74 -43 -135 -83 -135 -88 0 -6 62 -47 138 -90 l137
-80 0 70 0 69 133 0 c129 0 134 1 157 25 l23 25 -156 0 -156 0 -3 73 -3 73
-135 -77z m90 -90 c0 -44 -3 -79 -8 -77 -27 12 -132 74 -132 78 0 6 122 79
133 80 4 0 7 -36 7 -81z"/>
<path d="M7990 10845 c0 -27 1 -28 24 -19 21 8 20 17 -4 32 -18 11 -20 10 -20
-13z"/>
<path d="M6480 10442 c0 -91 16 -116 76 -116 55 0 69 22 69 111 0 51 -4 78
-12 80 -9 3 -13 -18 -15 -73 -3 -85 -15 -102 -61 -90 -25 6 -26 10 -29 83 -2
50 -7 78 -15 81 -10 3 -13 -17 -13 -76z"/>
<path d="M6674 10507 c-10 -28 1 -180 14 -185 9 -3 12 21 12 97 0 63 -4 101
-10 101 -6 0 -13 -6 -16 -13z"/>
<path d="M6880 10505 c0 -10 10 -15 30 -15 l29 0 3 -82 c2 -54 7 -83 16 -86 9
-3 12 18 12 82 l0 86 30 0 c20 0 30 5 30 15 0 12 -15 15 -75 15 -60 0 -75 -3
-75 -15z"/>
<path d="M6783 10445 c-53 -23 -51 -93 4 -113 38 -13 88 7 96 38 15 57 -41 99
-100 75z m71 -37 c14 -23 -3 -52 -33 -56 -42 -6 -67 38 -39 66 17 17 58 11 72
-10z"/>
<path d="M8077 11190 c-18 -29 -18 -30 2 -30 17 0 21 6 21 30 0 17 -1 30 -3
30 -1 0 -11 -13 -20 -30z"/>
<path d="M8360 10410 c0 -5 9 -10 20 -10 11 0 20 5 20 10 0 6 -9 10 -20 10
-11 0 -20 -4 -20 -10z"/>
<path d="M8585 10410 c-4 -6 5 -10 20 -10 15 0 24 4 20 10 -3 6 -12 10 -20 10
-8 0 -17 -4 -20 -10z"/>
<path d="M9070 10370 c-11 -7 -12 -12 -3 -21 8 -8 14 -6 22 10 12 22 5 27 -19
11z"/>
<path d="M9663 11798 c-30 -15 -56 -84 -45 -122 4 -16 19 -38 33 -48 48 -36
103 12 84 72 -8 26 -43 40 -72 29 -18 -7 -21 -5 -16 9 11 30 25 42 49 42 28 0
40 16 18 24 -20 8 -24 7 -51 -6z m42 -123 c0 -38 -37 -48 -55 -15 -17 32 -5
52 27 48 24 -3 28 -8 28 -33z"/>
<path d="M11667 11764 c-4 -4 -7 -27 -7 -50 0 -42 1 -43 38 -46 34 -3 37 -6
37 -33 0 -27 -3 -30 -35 -31 -54 -2 -57 -5 -26 -19 37 -16 82 -3 91 27 16 49
-28 98 -72 81 -13 -5 -15 -2 -10 11 4 10 7 22 7 27 0 5 16 9 36 9 24 0 34 4
32 13 -5 13 -79 22 -91 11z"/>
<path d="M12715 11710 c-187 -10 -327 -26 -371 -45 l-34 -14 0 -169 c0 -142 3
-172 16 -183 14 -11 14 -13 0 -21 -23 -13 -24 -339 -1 -358 13 -11 13 -14 -1
-27 -12 -12 -14 -45 -12 -186 l3 -172 35 -17 c69 -34 232 -43 740 -43 483 0
637 8 729 38 l36 12 5 170 c4 122 2 176 -7 191 -6 12 -8 25 -3 30 14 14 16
340 2 357 -7 8 -8 17 -2 23 5 5 10 85 11 177 2 140 0 170 -13 183 -48 48 -662
77 -1133 54z m-215 -142 c146 -18 1047 -18 1180 0 52 7 105 15 118 19 22 5 22
5 22 -125 l0 -129 -57 -11 c-228 -44 -1166 -41 -1375 4 l-28 6 0 129 c0 119 1
130 18 125 9 -3 64 -11 122 -18z m267 -470 l32 -53 1 53 c0 45 3 52 20 52 19
0 20 -7 20 -90 0 -82 -2 -90 -19 -90 -13 0 -32 20 -55 58 l-35 57 -1 -57 c0
-51 -2 -58 -20 -58 -19 0 -20 7 -20 90 0 87 1 90 23 90 16 0 31 -14 54 -52z
m362 43 c22 -14 2 -32 -32 -29 -44 4 -42 -20 3 -41 38 -17 52 -59 29 -87 -14
-16 -72 -19 -100 -3 -31 16 -6 41 28 28 25 -9 43 -5 43 11 0 5 -18 19 -40 30
-32 16 -40 26 -40 48 0 15 5 33 12 40 14 14 77 16 97 3z m186 -14 c21 -18 27
-31 26 -62 -1 -22 -2 -52 -2 -66 0 -24 -2 -26 -65 -27 -57 -2 -68 1 -89 23
-35 34 -35 96 0 130 32 33 93 34 130 2z m95 -52 l0 -75 35 0 c24 0 35 -5 35
-15 0 -12 -13 -15 -55 -15 l-55 0 0 90 c0 83 1 90 20 90 18 0 20 -7 20 -75z
m-418 8 c22 -20 23 -70 1 -95 -26 -29 -87 -24 -112 8 -12 15 -21 32 -21 39 0
7 9 24 21 39 24 31 81 36 111 9z m-402 -284 c250 -23 912 -14 1174 17 l56 7 0
-131 c0 -117 -2 -131 -18 -136 -45 -15 -189 -27 -444 -38 -358 -15 -873 4
-980 38 -16 5 -18 20 -18 136 l0 131 53 -6 c28 -4 108 -12 177 -18z"/>
<path d="M13222 11104 c-31 -21 -30 -69 3 -90 23 -15 51 -12 40 6 -5 7 22 35
34 35 8 0 2 38 -7 46 -17 16 -49 18 -70 3z"/>
<path d="M12911 11052 c-13 -25 8 -56 35 -50 29 5 27 62 -3 66 -13 2 -26 -4
-32 -16z"/>
<path d="M9725 11386 c-11 -8 -55 -34 -98 -58 l-78 -45 106 -61 105 -61 0 120
c0 65 -3 119 -7 118 -5 0 -17 -6 -28 -13z m-18 -133 c-3 -2 -17 3 -32 13 l-26
17 28 18 28 19 3 -31 c2 -17 1 -33 -1 -36z"/>
<path d="M11670 11355 l0 -45 -950 0 -950 0 0 -25 0 -25 949 0 950 0 3 -50 3
-49 103 60 c93 55 102 62 85 74 -32 21 -180 105 -186 105 -4 0 -7 -20 -7 -45z
m110 -74 c0 -7 -43 -31 -55 -31 -3 0 -5 16 -5 35 l0 36 30 -16 c17 -9 30 -19
30 -24z"/>
<path d="M5235 11116 c-44 -19 -85 -72 -85 -107 0 -19 -5 -29 -15 -29 -13 0
-15 -21 -15 -125 l0 -125 165 0 165 0 0 125 c0 69 -3 125 -8 125 -4 0 -15 22
-25 49 -28 81 -110 120 -182 87z m109 -58 c14 -13 28 -35 32 -50 l6 -28 -96 0
c-53 0 -96 2 -96 4 0 1 5 17 11 35 20 58 98 79 143 39z m56 -203 l0 -75 -115
0 -115 0 0 75 0 75 115 0 115 0 0 -75z"/>
<path d="M11706 11090 c-50 -16 -96 -73 -96 -120 0 -11 -4 -20 -10 -20 -6 0
-10 -48 -10 -125 l0 -125 160 0 160 0 0 125 c0 77 -4 125 -10 125 -5 0 -10 7
-10 16 0 28 -32 84 -59 103 -33 24 -87 33 -125 21z m105 -69 c16 -16 29 -39
29 -50 0 -20 -6 -21 -90 -21 -88 0 -90 0 -90 24 0 32 53 76 92 76 19 0 39 -10
59 -29z m49 -196 l0 -75 -115 0 -115 0 0 75 0 75 115 0 115 0 0 -75z"/>
<path d="M9633 11060 c-34 -21 -63 -66 -63 -100 0 -11 -7 -23 -15 -26 -12 -5
-15 -29 -15 -125 l0 -119 165 0 165 0 0 120 c0 66 -4 120 -9 120 -5 0 -12 15
-16 33 -21 98 -129 148 -212 97z m142 -61 c44 -54 33 -64 -70 -64 l-90 0 3 25
c3 38 46 70 92 70 31 0 43 -6 65 -31z m45 -189 l0 -80 -115 0 -115 0 0 80 0
80 115 0 115 0 0 -80z"/>
<path d="M5210 10600 l0 -50 -1710 0 c-940 0 -1710 -4 -1710 -8 0 -4 -21 -18
-46 -30 -66 -32 -142 -108 -176 -176 -61 -122 -58 79 -58 -3109 l0 -2917 -23
-9 c-43 -16 -77 -68 -77 -114 1 -51 17 -82 56 -108 88 -58 208 27 187 132 -6
33 -56 89 -79 89 -21 0 -21 5838 0 5917 32 121 85 193 178 244 l63 34 1318 3
1319 2 -56 -51 c-35 -32 -67 -73 -86 -112 -61 -126 -60 -85 -60 -1414 l0
-1213 25 0 25 0 2 1248 3 1247 23 56 c33 84 78 144 130 179 87 57 118 62 449
67 l302 5 3 -51 3 -51 98 56 c53 30 97 59 97 64 0 7 -99 68 -177 109 -22 11
-23 10 -23 -39z m85 -52 c32 -14 32 -22 0 -36 -35 -16 -35 -16 -35 18 0 34 0
34 35 18z m-3710 -6313 c30 -30 32 -64 4 -99 -33 -42 -99 -35 -124 15 -40 77
59 146 120 84z"/>
<path d="M5170 10255 c0 -11 11 -15 36 -15 l36 0 -27 -32 -28 -33 23 -5 c29
-7 45 -32 36 -55 -5 -14 -14 -16 -46 -11 -47 7 -53 -7 -10 -23 72 -25 127 54
65 95 l-25 16 25 32 c14 18 22 36 18 39 -3 4 -28 7 -55 7 -36 0 -48 -4 -48
-15z"/>
<path d="M5390 10251 c0 -10 -3 -33 -6 -50 -6 -30 -5 -31 29 -31 42 0 66 -23
50 -48 -7 -12 -22 -16 -47 -15 -41 3 -48 -13 -11 -27 53 -20 110 34 84 81 -11
22 -55 43 -70 33 -5 -3 -9 6 -9 20 0 23 4 26 35 26 24 0 35 5 35 15 0 11 -12
15 -45 15 -37 0 -45 -3 -45 -19z"/>
<path d="M12200 10135 l0 -95 43 0 c70 0 112 47 72 80 -11 9 -13 16 -5 24 15
15 12 52 -6 70 -9 10 -33 16 -60 16 l-44 0 0 -95z m85 35 c0 -20 -6 -26 -27
-28 -25 -3 -28 0 -28 28 0 28 3 31 28 28 21 -2 27 -8 27 -28z m10 -75 c0 -15
-8 -21 -32 -23 -30 -3 -33 -1 -33 23 0 24 3 26 33 23 24 -2 32 -8 32 -23z"/>
<path d="M13090 10189 c0 -36 -2 -40 -15 -29 -21 18 -64 4 -77 -25 -24 -53 27
-115 72 -87 12 7 21 8 25 2 17 -28 25 -1 25 85 0 78 -3 95 -15 95 -11 0 -15
-11 -15 -41z m-2 -80 c4 -34 -20 -54 -47 -39 -37 19 -23 73 18 68 20 -2 27 -9
29 -29z"/>
<path d="M13370 10135 l0 -95 46 0 c37 0 51 5 75 29 64 64 19 161 -75 161
l-46 0 0 -95z m104 43 c33 -46 7 -108 -45 -108 l-29 0 0 65 0 65 29 0 c20 0
35 -8 45 -22z"/>
<path d="M13770 10189 c0 -36 -2 -40 -15 -29 -21 18 -64 4 -77 -25 -24 -53 27
-115 72 -87 12 7 21 8 25 2 17 -28 25 -1 25 85 0 78 -3 95 -15 95 -11 0 -15
-11 -15 -41z m-2 -80 c4 -34 -20 -54 -47 -39 -37 19 -23 73 18 68 20 -2 27 -9
29 -29z"/>
<path d="M12373 10163 c-23 -9 -14 -23 15 -23 44 0 47 -13 5 -25 -30 -8 -38
-15 -38 -34 0 -33 29 -50 55 -33 12 7 20 8 20 2 0 -5 7 -10 15 -10 23 0 21 92
-3 113 -18 17 -45 20 -69 10z m57 -72 c0 -5 -7 -14 -15 -21 -18 -15 -42 1 -31
19 8 13 46 15 46 2z"/>
<path d="M12490 10105 c0 -51 3 -65 15 -65 11 0 15 11 15 38 0 41 14 62 42 62
15 0 18 -9 18 -50 0 -38 4 -50 15 -50 11 0 15 13 15 54 0 66 -17 85 -61 69
-16 -6 -29 -7 -29 -2 0 5 -7 9 -15 9 -12 0 -15 -14 -15 -65z"/>
<path d="M12672 10158 c-27 -14 -38 -51 -24 -83 13 -28 62 -41 92 -25 29 15
17 25 -25 21 -29 -2 -35 1 -41 23 -8 35 2 46 42 46 35 0 46 13 18 24 -21 8
-35 7 -62 -6z"/>
<path d="M12795 10145 c-14 -13 -25 -31 -25 -40 0 -25 46 -65 75 -65 29 0 75
40 75 65 0 25 -46 65 -75 65 -14 0 -37 -11 -50 -25z m86 -21 c18 -22 -1 -49
-36 -49 -35 0 -54 27 -36 49 8 9 24 16 36 16 12 0 28 -7 36 -16z"/>
<path d="M13170 10150 c-53 -53 16 -136 82 -98 22 13 22 13 -19 16 -60 4 -67
32 -8 32 38 0 45 3 45 19 0 22 -35 51 -62 51 -10 0 -27 -9 -38 -20z m54 -6
c27 -10 18 -24 -15 -24 -27 0 -30 2 -19 15 14 17 13 17 34 9z"/>
<path d="M13563 10163 c-23 -9 -14 -23 15 -23 44 0 47 -13 5 -25 -30 -8 -38
-15 -38 -34 0 -33 29 -50 55 -33 12 7 20 8 20 2 0 -5 7 -10 15 -10 23 0 21 92
-3 113 -18 17 -45 20 -69 10z m57 -72 c0 -5 -7 -14 -15 -21 -18 -15 -42 1 -31
19 8 13 46 15 46 2z"/>
<path d="M13856 10149 c-15 -12 -26 -30 -26 -44 0 -26 42 -65 70 -65 28 0 70
39 70 65 0 26 -42 65 -70 65 -10 0 -29 -9 -44 -21z m80 -35 c8 -32 -6 -46 -42
-42 -51 6 -46 68 5 68 25 0 32 -5 37 -26z"/>
<path d="M14006 10157 c-26 -19 -15 -45 24 -59 39 -13 33 -34 -9 -30 -37 3
-42 -15 -5 -24 34 -9 76 11 72 34 -2 9 -18 24 -35 32 -38 18 -37 36 2 32 19
-2 26 1 23 10 -6 18 -50 21 -72 5z"/>
<path d="M5312 10088 c6 -18 28 -21 28 -4 0 9 -7 16 -16 16 -9 0 -14 -5 -12
-12z"/>
<path d="M7370 9677 c-33 -17 -52 -55 -46 -96 9 -63 67 -95 127 -71 29 12 36
39 8 31 -47 -14 -68 -12 -88 8 -25 25 -27 58 -5 90 15 20 22 23 60 17 46 -6
58 6 25 24 -26 13 -50 13 -81 -3z"/>
<path d="M7510 9607 c0 -82 9 -107 37 -107 7 0 13 7 13 15 0 8 -4 15 -10 15
-6 0 -10 33 -10 80 0 64 -3 80 -15 80 -12 0 -15 -16 -15 -83z"/>
<path d="M7980 9649 c0 -36 -2 -40 -15 -29 -21 18 -64 4 -77 -25 -24 -53 27
-115 72 -87 12 7 21 8 25 2 17 -28 25 -1 25 85 0 78 -3 95 -15 95 -11 0 -15
-11 -15 -41z m-2 -80 c4 -34 -20 -54 -47 -39 -37 19 -23 73 18 68 20 -2 27 -9
29 -29z"/>
<path d="M7596 9609 c-15 -12 -26 -30 -26 -44 0 -26 42 -65 70 -65 28 0 70 39
70 65 0 26 -42 65 -70 65 -10 0 -29 -9 -44 -21z m80 -35 c8 -32 -6 -46 -42
-42 -51 6 -46 68 5 68 25 0 32 -5 37 -26z"/>
<path d="M7740 9576 c0 -66 17 -85 61 -69 16 6 29 7 29 2 0 -5 7 -9 15 -9 12
0 15 14 15 65 0 51 -3 65 -15 65 -11 0 -15 -11 -15 -39 0 -40 -22 -75 -44 -68
-6 2 -12 27 -14 55 -2 37 -7 52 -18 52 -10 0 -14 -14 -14 -54z"/>
<path d="M8070 9342 c-40 -20 -80 -74 -80 -108 0 -13 -4 -24 -10 -24 -6 0 -10
-48 -10 -125 l0 -125 160 0 160 0 0 125 c0 69 -4 125 -9 125 -5 0 -12 15 -15
34 -8 44 -41 85 -82 102 -44 18 -72 18 -114 -4z m121 -61 c16 -16 29 -39 29
-50 0 -20 -6 -21 -90 -21 -88 0 -90 0 -90 24 0 32 53 76 92 76 19 0 39 -10 59
-29z m57 -193 l-3 -73 -117 -3 -118 -3 0 76 0 75 120 0 121 0 -3 -72z"/>
<path d="M7608 9257 c-49 -41 -62 -101 -34 -156 34 -65 128 -83 185 -36 90 76
40 215 -77 215 -34 0 -54 -6 -74 -23z m105 -29 c50 -26 62 -78 27 -116 -50
-53 -122 -29 -128 42 -3 40 10 63 43 76 28 12 33 12 58 -2z"/>
<path d="M7660 7887 c0 -992 -2 -1140 -16 -1192 -29 -114 -96 -198 -193 -244
l-56 -26 -697 -3 -698 -3 0 -25 0 -25 698 3 697 3 57 23 c76 31 161 109 199
184 61 120 59 77 59 1311 l0 1127 -25 0 -25 0 0 -1133z"/>
<path d="M4702 7793 c-35 -7 -89 -66 -96 -107 -4 -20 -11 -36 -16 -36 -6 0
-10 -52 -10 -125 l0 -125 165 0 165 0 0 125 c0 99 -3 125 -14 125 -8 0 -16 15
-20 38 -6 42 -44 84 -89 101 -29 11 -44 12 -85 4z m87 -58 c30 -15 41 -33 41
-66 0 -17 -8 -19 -90 -19 -84 0 -90 1 -90 21 0 29 53 79 85 79 14 0 39 -7 54
-15z m71 -210 l0 -75 -115 0 -115 0 0 75 0 75 115 0 115 0 0 -75z"/>
<path d="M4224 7690 c-11 -4 -33 -23 -48 -41 -24 -29 -28 -39 -24 -81 11 -109
133 -155 209 -79 93 94 -13 251 -137 201z m105 -66 c28 -35 26 -69 -4 -99 -48
-49 -125 -17 -125 52 0 70 86 101 129 47z"/>
<path d="M3865 7391 c-69 -42 -70 -44 -75 -260 l-5 -196 -363 -5 -364 -5 -24
-28 c-18 -22 -24 -40 -24 -78 l0 -50 1130 1 1130 1 0 45 0 44 68 0 c110 0 112
3 112 174 0 126 -2 145 -18 159 -17 15 -69 17 -540 17 -593 0 -552 6 -552 -85
0 -51 -1 -54 -30 -60 -37 -8 -113 24 -158 68 -34 33 -52 79 -52 135 0 48 -27
98 -65 122 -43 26 -128 27 -170 1z m156 -17 c33 -17 59 -66 59 -111 0 -106 81
-197 193 -218 22 -4 37 -13 37 -21 0 -8 7 -14 16 -14 12 0 14 -9 12 -37 l-3
-38 -262 -3 -263 -2 0 189 0 189 27 32 c14 18 36 36 47 40 34 14 105 11 137
-6z"/>
<path d="M5904 6870 c-26 -10 -38 -26 -25 -34 5 -4 12 -2 16 4 12 19 53 11 60
-11 6 -17 -2 -30 -39 -61 -31 -27 -46 -47 -46 -64 0 -23 3 -24 60 -24 47 0 60
3 60 15 0 11 -12 15 -45 15 -25 0 -45 4 -45 9 0 5 16 21 35 35 42 32 56 56 49
83 -4 16 -45 46 -57 42 -1 0 -12 -4 -23 -9z"/>
<path d="M3010 6469 l0 -281 29 -29 29 -29 1075 0 1074 0 27 26 26 27 0 283 0
284 -1130 0 -1130 0 0 -281z m1970 101 c24 -24 25 -47 3 -72 -15 -17 -54 -18
-839 -18 -734 0 -824 2 -838 16 -21 20 -20 53 1 76 15 17 54 18 835 18 805 0
818 0 838 -20z m-2 -148 c23 -25 25 -35 24 -105 -1 -43 -4 -82 -7 -88 -4 -5
-1 -16 5 -24 10 -12 9 -15 -3 -15 -8 0 -20 -7 -27 -15 -11 -13 -115 -15 -827
-15 -761 0 -816 1 -836 18 -20 15 -22 26 -20 112 1 52 2 101 2 108 1 6 10 21
21 32 20 20 33 20 831 20 l811 0 26 -28z"/>
<path d="M3580 6530 l0 -40 115 0 115 0 0 40 c0 22 -4 40 -10 40 -5 0 -10 -4
-10 -10 0 -5 -7 -10 -15 -10 -8 0 -15 -7 -15 -15 0 -8 9 -15 21 -15 11 0 17
-4 14 -10 -9 -15 -45 -12 -51 4 -6 15 -44 10 -56 -8 -6 -8 -11 -6 -18 4 -7 12
-12 12 -22 2 -17 -17 -48 -15 -48 2 0 8 5 18 10 21 6 4 5 12 -4 21 -22 21 -26
18 -26 -26z"/>
<path d="M3638 6545 c-3 -14 -4 -25 -3 -25 2 0 10 11 19 25 13 20 14 25 2 25
-7 0 -16 -11 -18 -25z"/>
<path d="M3692 6550 c0 -14 2 -19 5 -12 2 6 2 18 0 25 -3 6 -5 1 -5 -13z"/>
<path d="M3351 6551 c-15 -10 -8 -41 9 -41 15 0 25 29 14 40 -5 5 -15 5 -23 1z"/>
<path d="M3413 6544 c-7 -19 11 -39 26 -30 16 10 13 33 -4 40 -9 3 -18 -1 -22
-10z"/>
<path d="M3483 6544 c-7 -19 11 -39 26 -30 16 10 13 33 -4 40 -9 3 -18 -1 -22
-10z"/>
<path d="M3310 6348 l0 -32 28 27 c22 21 39 27 87 30 50 3 45 4 -27 5 l-88 2
0 -32z"/>
<path d="M3658 6373 c90 -2 234 -2 320 0 86 1 13 3 -163 3 -176 0 -247 -2
-157 -3z"/>
<path d="M4323 6373 c92 -2 242 -2 335 0 92 1 16 3 -168 3 -184 0 -260 -2
-167 -3z"/>
<path d="M4887 6371 c23 -4 51 -16 63 -26 20 -18 20 -18 20 8 0 26 -1 27 -62
26 -59 -1 -60 -2 -21 -8z"/>
<path d="M3310 6253 l0 -26 25 23 c14 13 25 25 25 27 0 2 -11 3 -25 3 -20 0
-25 -5 -25 -27z"/>
<path d="M4935 6260 c10 -11 22 -20 27 -20 4 0 8 9 8 20 0 15 -7 20 -27 20
-25 0 -26 0 -8 -20z"/>
<path d="M3373 6183 c20 -2 54 -2 75 0 20 2 3 4 -38 4 -41 0 -58 -2 -37 -4z"/>
<path d="M3658 6183 c90 -2 234 -2 320 0 86 1 13 3 -163 3 -176 0 -247 -2
-157 -3z"/>
<path d="M4312 6183 c92 -2 245 -2 340 0 95 1 20 3 -167 3 -187 0 -265 -2
-173 -3z"/>
<path d="M4868 6183 c18 -2 45 -2 60 0 15 2 0 4 -33 4 -33 0 -45 -2 -27 -4z"/>
<path d="M5882 6456 l-103 -59 101 -60 c56 -32 104 -57 106 -54 3 2 3 56 2
119 l-3 114 -103 -60z m58 -61 l0 -36 -32 17 -31 16 24 19 c34 26 39 24 39
-16z"/>
<path d="M5843 6060 c-34 -21 -63 -66 -63 -100 0 -11 -7 -23 -15 -26 -12 -5
-15 -29 -15 -125 l0 -119 165 0 165 0 0 120 c0 66 -4 120 -9 120 -5 0 -12 15
-16 33 -21 98 -129 148 -212 97z m142 -61 c44 -54 33 -64 -70 -64 -90 0 -90 0
-87 25 4 42 40 70 88 70 35 0 47 -5 69 -31z m45 -189 l0 -80 -115 0 -115 0 0
80 0 80 115 0 115 0 0 -80z"/>
<path d="M3590 5745 l0 -95 46 0 c37 0 51 5 75 29 64 64 19 161 -75 161 l-46
0 0 -95z m104 43 c33 -46 7 -108 -45 -108 l-29 0 0 65 0 65 29 0 c20 0 35 -8
45 -22z"/>
<path d="M3772 5828 c6 -18 28 -21 28 -4 0 9 -7 16 -16 16 -9 0 -14 -5 -12
-12z"/>
<path d="M4380 5824 c0 -9 5 -14 12 -12 18 6 21 28 4 28 -9 0 -16 -7 -16 -16z"/>
<path d="M4540 5824 c0 -9 5 -14 12 -12 18 6 21 28 4 28 -9 0 -16 -7 -16 -16z"/>
<path d="M4450 5801 c0 -11 -6 -22 -12 -25 -10 -5 -10 -7 0 -12 7 -3 12 -24
12 -49 0 -34 5 -47 19 -55 27 -14 41 -13 41 5 0 8 -7 15 -15 15 -11 0 -15 11
-15 40 0 29 4 40 15 40 8 0 15 5 15 10 0 6 -7 10 -15 10 -8 0 -15 9 -15 20 0
11 -7 20 -15 20 -8 0 -15 -9 -15 -19z"/>
<path d="M3770 5715 c0 -51 3 -65 15 -65 12 0 15 14 15 65 0 51 -3 65 -15 65
-12 0 -15 -14 -15 -65z"/>
<path d="M3848 5769 c-27 -15 -22 -38 12 -57 35 -20 34 -38 -4 -34 -33 3 -35
-15 -2 -24 29 -7 66 11 66 32 0 8 -13 23 -30 32 -34 19 -34 38 -1 34 15 -1 21
3 19 10 -6 17 -38 21 -60 7z"/>
<path d="M3950 5690 c0 -73 3 -90 15 -90 11 0 15 11 15 36 0 32 2 35 15 24 22
-18 63 2 71 35 13 51 -37 104 -71 75 -9 -7 -15 -8 -20 0 -17 27 -25 2 -25 -80z
m80 56 c6 -8 10 -25 8 -38 -2 -17 -10 -23 -28 -23 -18 0 -26 6 -28 23 -3 22
13 52 28 52 4 0 13 -7 20 -14z"/>
<path d="M4115 5755 c-14 -13 -25 -31 -25 -40 0 -25 46 -65 75 -65 29 0 75 40
75 65 0 25 -46 65 -75 65 -14 0 -37 -11 -50 -25z m86 -21 c18 -22 -1 -49 -36
-49 -35 0 -54 27 -36 49 8 9 24 16 36 16 12 0 28 -7 36 -16z"/>
<path d="M4278 5769 c-27 -15 -22 -38 12 -57 35 -20 34 -38 -4 -34 -33 3 -35
-15 -2 -24 29 -7 66 11 66 32 0 8 -13 23 -30 32 -34 19 -34 38 -1 34 15 -1 21
3 19 10 -6 17 -38 21 -60 7z"/>
<path d="M4380 5715 c0 -51 3 -65 15 -65 12 0 15 14 15 65 0 51 -3 65 -15 65
-12 0 -15 -14 -15 -65z"/>
<path d="M4540 5715 c0 -51 3 -65 15 -65 12 0 15 14 15 65 0 51 -3 65 -15 65
-12 0 -15 -14 -15 -65z"/>
<path d="M4590 5768 c0 -29 39 -113 54 -116 11 -2 22 11 35 40 31 73 34 88 17
88 -8 0 -20 -16 -26 -37 -18 -57 -26 -59 -42 -12 -14 41 -38 65 -38 37z"/>
<path d="M4745 5755 c-14 -13 -25 -31 -25 -40 0 -25 46 -65 75 -65 29 0 75 40
75 65 0 25 -46 65 -75 65 -14 0 -37 -11 -50 -25z m86 -21 c18 -22 -1 -49 -36
-49 -35 0 -54 27 -36 49 8 9 24 16 36 16 12 0 28 -7 36 -16z"/>
<path d="M4908 5769 c-27 -15 -22 -38 12 -57 35 -20 34 -38 -4 -34 -33 3 -35
-15 -2 -24 29 -7 66 11 66 32 0 8 -13 23 -30 32 -34 19 -34 38 -1 34 15 -1 21
3 19 10 -6 17 -38 21 -60 7z"/>
<path d="M4684 5410 c-32 -13 -72 -67 -80 -105 -3 -19 -10 -35 -15 -35 -5 0
-9 -54 -9 -120 l0 -120 165 0 165 0 0 119 c0 96 -3 120 -15 125 -8 3 -15 16
-15 28 0 34 -35 85 -69 103 -32 16 -93 19 -127 5z m113 -55 c22 -15 46 -69 36
-79 -4 -3 -44 -6 -90 -6 -63 0 -85 3 -89 14 -6 17 12 56 35 73 22 17 82 16
108 -2z m63 -205 l0 -80 -115 0 -115 0 0 80 0 80 115 0 115 0 0 -80z"/>
<path d="M4218 5242 l-56 -97 59 -3 c32 -2 86 -2 119 0 l59 3 -56 98 c-31 53
-59 97 -62 97 -4 0 -31 -44 -63 -98z m92 -44 c0 -5 -13 -8 -30 -8 -34 0 -37 6
-14 39 l17 24 13 -24 c7 -13 13 -27 14 -31z"/>
<path d="M4250 4206 c0 -897 -1 -926 -20 -989 -38 -121 -107 -199 -215 -239
-59 -22 -71 -23 -552 -26 l-493 -3 0 50 c0 28 -3 51 -7 51 -6 0 -149 -81 -186
-105 -15 -11 -4 -20 88 -73 l105 -61 0 49 0 49 513 3 512 3 67 32 c115 54 187
147 223 288 13 51 15 186 15 977 l0 918 -25 0 -25 0 0 -924z m-1330 -1271 c0
-40 -5 -42 -39 -16 l-24 19 29 15 c16 9 30 16 32 17 1 0 2 -16 2 -35z"/>
<path d="M1005 4409 c-19 -17 -40 -48 -46 -70 -7 -21 -16 -39 -21 -39 -4 0 -8
-56 -8 -125 l0 -125 165 0 165 0 0 125 c0 104 -2 125 -15 125 -8 0 -15 9 -15
20 0 64 -66 120 -142 120 -39 0 -54 -6 -83 -31z m151 -40 c12 -11 24 -31 27
-45 l4 -24 -93 0 c-100 0 -105 3 -80 49 29 53 97 62 142 20z m52 -196 l-3 -78
-112 -3 -113 -3 0 81 0 80 115 0 116 0 -3 -77z"/>
<path d="M1034 3623 c-12 -2 -32 -15 -45 -29 l-24 -26 -3 -476 c-2 -262 0
-492 3 -511 4 -18 17 -44 30 -57 l24 -24 506 0 507 0 29 29 29 29 0 502 c0
340 -3 508 -11 522 -25 46 -47 48 -551 47 -260 -1 -483 -4 -494 -6z m934 -342
c2 -56 -1 -98 -8 -105 -13 -13 -13 -146 0 -146 6 0 10 -37 10 -90 l0 -90 -100
0 -100 0 0 -50 0 -50 -34 0 c-33 0 -35 -2 -38 -37 l-3 -38 -160 0 -160 0 -5
35 c-5 32 -8 35 -42 38 l-38 3 0 49 0 49 -97 3 -98 3 -3 83 c-2 67 0 83 13 88
22 9 22 139 0 148 -12 4 -15 25 -15 99 0 52 3 97 7 100 3 4 200 6 437 5 l431
-3 3 -94z"/>
<path d="M2870 3395 c0 -11 11 -15 36 -15 l36 0 -27 -32 -28 -33 23 -5 c29 -7
45 -32 36 -55 -5 -14 -14 -16 -46 -11 -47 7 -53 -7 -10 -23 72 -25 127 54 65
95 l-25 16 25 32 c14 18 22 36 18 39 -3 4 -28 7 -55 7 -36 0 -48 -4 -48 -15z"/>
<path d="M2824 2661 c-39 -24 -64 -58 -64 -88 0 -12 -7 -28 -15 -37 -12 -11
-15 -41 -15 -130 l0 -116 165 0 165 0 0 119 c0 96 -3 120 -15 125 -8 3 -15 16
-15 28 0 34 -35 85 -69 103 -41 21 -99 19 -137 -4z m134 -54 c12 -12 23 -34
24 -47 3 -25 3 -25 -87 -25 -103 0 -114 10 -70 64 22 26 34 31 69 31 31 0 48
-6 64 -23z m52 -197 l0 -80 -115 0 -115 0 0 80 0 80 115 0 115 0 0 -80z"/>
<path d="M803 2260 c-12 -5 -29 -23 -38 -41 -40 -77 33 -167 105 -129 13 7 21
7 25 0 14 -23 25 -7 25 35 0 48 -14 63 -47 50 -17 -6 -17 -7 0 -19 21 -16 22
-32 1 -40 -45 -17 -94 13 -94 59 0 41 35 68 81 62 46 -6 61 9 24 23 -31 12
-52 12 -82 0z"/>
<path d="M1860 2197 c0 -83 10 -104 57 -113 26 -5 37 -1 57 19 23 23 26 34 26
97 0 55 -3 70 -15 70 -11 0 -15 -17 -17 -71 -2 -55 -7 -74 -20 -83 -13 -8 -23
-8 -35 0 -14 9 -19 28 -21 83 -2 54 -6 71 -17 71 -12 0 -15 -16 -15 -73z"/>
<path d="M2032 2258 c6 -18 28 -21 28 -4 0 9 -7 16 -16 16 -9 0 -14 -5 -12
-12z"/>
<path d="M2222 2258 c3 -7 17 -14 31 -16 27 -3 27 -4 27 -83 0 -64 3 -79 15
-79 12 0 15 16 15 80 l0 80 30 0 c20 0 30 5 30 15 0 12 -15 15 -76 15 -56 0
-75 -3 -72 -12z"/>
<path d="M1090 2231 c0 -11 -6 -22 -12 -25 -10 -5 -10 -7 0 -12 7 -3 12 -24
12 -49 0 -34 5 -47 19 -55 27 -14 41 -13 41 5 0 8 -7 15 -15 15 -11 0 -15 11
-15 40 0 29 4 40 15 40 8 0 15 5 15 10 0 6 -7 10 -15 10 -8 0 -15 9 -15 20 0
11 -7 20 -15 20 -8 0 -15 -9 -15 -19z"/>
<path d="M973 2203 c-24 -9 -13 -23 17 -23 17 0 30 -4 30 -10 0 -5 -8 -10 -18
-10 -24 0 -62 -28 -62 -46 0 -22 46 -40 64 -25 10 8 16 9 21 1 14 -23 25 -7
25 39 0 67 -29 94 -77 74z m47 -72 c0 -5 -7 -14 -15 -21 -18 -15 -42 1 -31 19
8 13 46 15 46 2z"/>
<path d="M1190 2190 c-53 -53 16 -136 82 -98 22 13 22 13 -19 16 -60 4 -67 32
-8 32 38 0 45 3 45 19 0 22 -35 51 -62 51 -10 0 -27 -9 -38 -20z m54 -6 c27
-10 18 -24 -15 -24 -27 0 -30 2 -19 15 14 17 13 17 34 9z"/>
<path d="M1310 2199 c0 -7 8 -36 17 -66 21 -67 44 -71 63 -10 l13 42 14 -43
c20 -56 41 -52 64 13 22 62 23 75 5 75 -8 0 -19 -20 -26 -47 l-13 -48 -15 48
c-9 26 -21 47 -28 47 -7 0 -19 -21 -26 -47 l-14 -48 -15 44 c-14 42 -39 67
-39 40z"/>
<path d="M1543 2203 c-24 -9 -13 -23 17 -23 17 0 30 -4 30 -10 0 -5 -8 -10
-18 -10 -24 0 -62 -28 -62 -46 0 -22 46 -40 64 -25 10 8 16 9 21 1 14 -23 25
-7 25 39 0 67 -29 94 -77 74z m47 -72 c0 -5 -7 -14 -15 -21 -18 -15 -42 1 -31
19 8 13 46 15 46 2z"/>
<path d="M1650 2185 c5 -14 16 -38 25 -55 22 -42 19 -59 -12 -71 -18 -7 -23
-13 -16 -20 18 -18 54 1 69 37 50 119 54 134 39 134 -9 0 -20 -12 -26 -27 -5
-16 -12 -35 -15 -43 -4 -10 -12 -1 -25 28 -20 46 -56 62 -39 17z"/>
<path d="M2030 2145 c0 -51 3 -65 15 -65 12 0 15 14 15 65 0 51 -3 65 -15 65
-12 0 -15 -14 -15 -65z"/>
<path d="M2116 2189 c-15 -12 -26 -30 -26 -44 0 -26 42 -65 70 -65 28 0 70 39
70 65 0 26 -42 65 -70 65 -10 0 -29 -9 -44 -21z m80 -35 c8 -32 -6 -46 -42
-42 -51 6 -46 68 5 68 25 0 32 -5 37 -26z"/>
</g>
</svg>
