<svg xmlns="http://www.w3.org/2000/svg" width="1200" height="500"><path fill="#fff" d="M1191 416.4c-.5 0-1 0-1.3.2l-43.5-60.4c.5-.7.7-1.5.7-2.4 0-2.3-2-4-4.2-4.3l-21.6-71.3c1.2-.8 2-2 2-3.7 0-2.4-2-4.4-4.4-4.4-1.3 0-2.5.7-3.3 1.6l-72.4-47.2c.2-.4.2-1 .2-1.4 0-2.4-2-4.4-4.3-4.4h-1l-38.2-60.5c.5-.6.8-1.5.8-2.4 0-2.4-2-4.3-4.3-4.3-1.5 0-3 .8-3.7 2L911.2 126l.2-1.4c0-2.4-2-4.4-4.4-4.4-1.4 0-2.7.7-3.5 1.8l-63-46.7c.2-.6.3-1 .3-1.7 0-2.4-2-4.3-4.4-4.3-2 0-3.5 1.3-4.2 3L749 64.6c-.4-2-2.2-3.7-4.3-3.7-1.6 0-3 .7-3.7 2l-84.2-26.2v-.4c0-2.4-2-4.3-4.4-4.3-2.4 0-4.4 2-4.4 4.5v.3l-85.4 14.5c-.6-1.6-2.2-2.7-4-2.7-2 0-3.7 1.4-4.2 3L470 48.4c-.6-1.7-2.2-3-4-3-2.6 0-4.5 2-4.5 4.5v.7L399.3 86c-.8-.8-2-1.4-3.4-1.4-2.4 0-4.4 2-4.4 4.4v.2l-94.8 18.2c-.8-1.3-2.2-2.2-3.8-2.2-2.4 0-4.4 2-4.4 4.4 0 .6.2 1.3.4 1.8l-51.5 56c-.8-.5-1.7-.8-2.8-.8-2.4 0-4.4 2-4.4 4.4 0 .6.2 1.2.4 1.7l-77.8 36c-.7-1-2-2-3.6-2-2.4 0-4.3 2-4.3 4.5 0 1.6.8 3 2 3.7l-24 67.7h-1c-2.3 0-4.3 2-4.3 4.3 0 .8.2 1.7.7 2.4L53.6 342c-.8-1-2-1.8-3.4-1.8-2.3 0-4.3 2-4.3 4.4 0 2.2 1.6 4 3.8 4.4l-.4 75c-2 .4-3.3 2-3.3 4.2 0 1.3.5 2.5 1.4 3.3L5 499h1182.5l4.2-74c2-.5 3.3-2.2 3.3-4.2.3-2.4-1.7-4.4-4-4.4zm-2.7 1c-1 .7-1.8 2-1.8 3.4 0 .5 0 1 .3 1.4l-61.7 35.5c-.4-.8-1-1.4-2-1.8l20-98c.8 0 1.5-.3 2-.7l43.3 60zM987 424.6c-1.6 0-3-1.3-3-3 0-1.4 1.4-2.7 3-2.7 1.5 0 2.7 1.3 2.7 2.8 0 1.6-1.3 3-2.8 3zm-4.5-3.2l-124.2 16.2c0-1.2-.7-2.2-1.6-2.8l46-95.2c.6.2 1.2.4 1.8.4.8 0 1.5-.2 2-.6L983 420c-.3.4-.4 1-.5 1.5zm-225-23.5l69.5-80c.6.6 1.5 1 2.4 1L852 434.4c-1 .4-1.7 1.3-2 2.3l-92.3-36v-1c0-.6 0-1.2-.2-1.7zm-552.8 34L103 447.8c-.2-.6-.5-1-1-1.6l79-87c.7.3 1.5.5 2.3.5.4 0 .8 0 1.3-.2l22 68.5c-1 .8-1.7 2-1.7 3.5v.3zm-152-7.8l15.6-40.5c.5 0 1 .3 1.7.3h.4L96 445.8c-.4.4-.8.8-1 1.3l-40.5-17.5c.2-.5.2-1 .2-1.4 0-1.6-.8-3-2-3.7zm14.2-41.5l-16 41 .3-75h.2L67 376.4c-1 .7-1.4 2-1.4 3 0 1.3.5 2.4 1.3 3.2zm59.4-96l41.4-13.2L115 319c-.3 0-.6-.3-1-.5l8.3-27.2c2.3 0 4-2 4-4.3v-.2zm163-78.5l.6 1-51.6 39c-.8-1-2-1.7-3.6-1.7s-2.8.8-3.6 2l-77.8-36 .2-.4 136-3.7zm8-97.5L407 123v.3L336 150c-.8-1.2-2-2-3.7-2-.7 0-1.6.3-2.2.8l-33.6-36.2c.5-.6.8-1.3 1-2zm102.5-19.5l79.8 19.3v.2l-64.4 10c-.7-1.5-2.2-2.5-4-2.5-.4 0-1 0-1.3.2l-11.7-25.7c.6-.3 1.2-1 1.6-1.6zm84 16.2c1.6 0 3 1.3 3 3 0 1.5-1.4 2.8-3 2.8s-2.8-1.2-2.8-2.8c0-1.5 1.3-2.8 2.8-2.8zm72-51c.8.7 1.8 1 2.7 1 1.5 0 2.8-.6 3.6-1.8L606 77.3v1.5l-39 10c-.6-1.7-2.2-3-4-3-2.5 0-4.4 2-4.4 4.3v.7l-70.3 18 68-52.2zm94.5-16c.2 0 .4.3.7.3l-18.7 70.8c-1 0-1.8.3-2.5.7L612.7 82c1-.8 1.8-2.2 1.8-3.7 0-.8-.3-1.6-.7-2.3l36.5-35.6zm-14 76.8L727 107l-67.7 30c-.8-1.3-2.2-2.2-3.7-2.2s-2.8.8-3.5 1.8l-16.8-17.3c.6-.5 1-1.2 1.4-2zm106.3-48l-10.3 32c-2.5 0-4.3 1.8-4.5 4l-91.2 10.4 104.2-48c.5.8 1 1.3 1.8 1.7zm5-.7l70 58.2v.2l-81-21v-.4c0-1.8-1.3-3.4-3-4l10.3-31.8h.5c1.4 0 2.5-.5 3.2-1.3zm88.6 9.6h1.4l29 49c-.7.6-1.2 1.4-1.3 2.3l-40-1c-.4-1.3-1.2-2.2-2.4-2.7L836 78h.3zm37.8 52.3l28.7-3.7c.5 1.5 2 2.6 3.8 2.6 1 0 1.8-.3 2.6-1l47.8 30.4-83.3-27.2c0-.3 0-.7.2-1zm92.2 31.2l25.5-4c.5 1.5 2 2.7 4 2.7h.2l11.5 63.2-.6.3-41.8-59.2c.7-.7 1-1.8 1.2-3zm47.3 66.7l21-3 .8 1-128.7 106c-.4-.3-1-.5-1.4-.6l16.3-86.7c2.3 0 4.2-1.8 4.5-4l79.4-11.7c.8 1.4 2.3 2.3 4 2.3 2 0 3.7-1.5 4-3.5zM1138 354.8l-148 64.4c-.3-.4-.7-.8-1.3-1l69.8-122.3h1.3c1 0 2-.3 3-1l76 56.4c-.6.7-1 1.6-1 2.6 0 .3 0 .6.2 1zm-78.2-60.3c-1.5 0-2.8-1.3-2.8-2.8s1.3-2.8 3-2.8 2.8 1.2 2.8 2.8c0 1.5-1.3 2.8-2.8 2.8zm-2.6.7l-70 122.5h-.5c-1 0-2.2.5-3 1.2l-76-80c.6-1 1-2 1-3v-.6L1056 294c.4.5.8 1 1.3 1.3zM854 434h-.4L831 319c1.3-.5 2.4-1.5 3-2.7l66.2 19v.5c0 1.3.5 2.4 1.3 3.2l-46 95.2-1.5-.2zM710.5 286v-.7L879 234.5c0 .6.4 1 1 1.4l-49.2 74.4h-1c-1.7 0-3 1-4 2.3L710.6 286zM674 320c0-.6-.2-1-.5-1.7l30.2-29.3c.7.4 1.6.7 2.4.7 1.7 0 3-1 4-2l113.5 26L674 320zm26.3 34.8L625 389.5c-.2-.4-.5-1-1-1.2l44-63.8 1.5.3c1 0 2-.4 2.8-1L701 351c-.6.7-1 1.8-1 3v.7zm-77.5 32.6c-.5-.2-1-.3-1.6-.3-2.4 0-4.4 2-4.4 4.4v.2l-203.6-11.4 252.6-57.6 1 1.2-44 63.6zm1.2 4c0 1.6-1.3 3-2.8 3s-2.8-1.4-2.8-3 1.3-2.8 3-2.8 2.8 1.3 2.8 3zm-220-11l-93.4 16.2v-.4l109-79.7c.7.4 1.3.8 2 1L408 375.7c-2.2.2-4 2-4 4.4v.4zM306.6 394c-1 0-2 .4-3 1L209 322.5c.2-.5.4-1 .4-1.7l208.8-7c0 .6.3 1 .6 1.5L309.5 395c-.8-.8-2-1.2-3-1.2zm3 4.3c0 1.7-1.4 3-3 3s-2.7-1.3-2.7-3c0-1.4 1.3-2.7 3-2.7s2.8 1.3 2.8 2.8zm-123-45.8l16.7-28c.6.3 1.3.5 2 .5 1 0 2-.4 2.8-1l94.3 72L188 355.5c0-1.3-.6-2.4-1.5-3.2zm-1.4-.8c-.4-.2-1-.4-1.6-.4-.5 0-1 0-1.5.3l-24-27.6.5-1.5 42.4-1c0 .8.5 1.6 1 2.2l-17 28zm1.3 4c0 1.5-1.3 2.8-2.8 2.8s-2.8-1.2-2.8-2.8 1.3-2.8 3-2.8 2.7 1.3 2.7 3zm-17-81c.6.2 1.2.4 2 .4 2 0 4-1.7 4.2-3.8l55-17.5L119 317.8l50.4-43.5zm63-20.2l1 .7-27.5 61h-.6c-2 0-4 1.7-4.3 3.7l-42.5 1c-.3-2-2-3.5-4.3-3.5-2.2 0-4 1.7-4.3 3.8l-33 1-.2-.8 115.7-66.7zm59.2-44c.7.5 1.5.7 2.4.7 1 0 1.7-.4 2.5-1l80.5 64.3v.4l-61.7-10.5v-.4c0-2.4-2-4.4-4.4-4.4-2 0-3.8 1.5-4.3 3.4l-67-11.5v-.3c0-.4 0-.7-.2-1l52.2-39.5zm39-54c.6.4 1.2.6 2 .6 1.7 0 3.2-1 4-2.4L375 167v1.8l-77.3 36c0-.3-.2-.6-.4-.8l33-47.6zm-.8-3.7c0-1.5 1.3-2.8 3-2.8 1.5 0 2.8 1.3 2.8 3 0 1.5-1.3 2.8-2.8 2.8s-2.8-1.3-2.8-2.8zm80-26c.5.3 1 .4 1.5.5l6.8 62.5c-.8.5-1.4 1.2-1.8 2l-32.6-22c.2-.3.3-1 .3-1.4 0-1-.6-2.2-1.4-3l27.3-38.4zm6.3-2l55.4 16v.4c0 .8.3 1.6.7 2.3l-49 47c-.8-.7-1.8-1.2-3-1.2h-.6l-6.7-62c1.5-.2 2.7-1.2 3.3-2.6zm68.6-9.7c1 0 2-.4 2.7-1l38 29.6c0 .3-.3.7-.4 1l-44.7-4c-.2-1.6-1-3-2.5-3.6l6.6-22h.4zm4.4-4.3l70.6-18c.3.5.6 1 1 1.3l-30 48.2c-.6-.3-1.2-.4-1.8-.4-1 0-1.7.2-2.4.7L488 112.7c.5-.7.7-1.5.7-2.3zm142 9.5l-20 81.8.7-119h.4l17.7 31c-.5.6-.8 1.6-.8 2.5-.2 1.7.8 3 2.2 3.8zm3.5.3l17.5 18v1c0 1 .3 2 .8 2.7L612 203.5h-.2l20.4-83.2h.5c.5 0 1 0 1.5-.2zM729 108c.8 1.3 2 2 3.8 2h1.3l37.5 57.6c-.6.4-1 1-1.5 1.7l-110-28.7c.2-.5.2-1 .2-1.4v-1l68.6-30.3zm3.8-5c1.5 0 2.8 1.2 2.8 2.7s-1.4 2.8-3 2.8c-1.4 0-2.7-1.2-2.7-2.8s1.2-2.8 2.8-2.8zm4 4.7l80.8 20.8v1c0 .6 0 1.2.3 1.8L777 168c-1-.8-2-1.4-3.3-1.4-.4 0-.7 0-1 .2L735 109c.5-.3 1-1 1.2-1.4zm89.3 21.8l39.8 1c.2 1.2.8 2.2 1.7 2.8L850 175h-.5c-.6 0-1.2 0-1.8.3l-23.2-42.8c1-.8 1.4-1.8 1.4-3zm27.8 50L958 162.7c.4 1 1 1.7 1.7 2.2l-36.4 71.4-1.2-.2c-1 0-2.2.5-3 1.3l-66-55.8c.5-.6.7-1.4.8-2.3zm110.5-14.3l42 59.2c-.7.8-1 1.8-1 2.8v.6l-79 11.7c-.3-1-1-1.8-1.7-2.4l36.4-71.5 1 .2c.8 0 1.5 0 2-.4zM900.7 334l-66.4-19v-.2c0-1.5-.8-2.8-2-3.6l49-74.2c.5.2 1 .4 1.7.4h.3l19.2 94.6c-.8.4-1.5 1-2 2zm-231-10.7c-1.5 0-2.8-1.3-2.8-2.8s1.2-2.8 2.7-2.8c1.5 0 2.8 1.3 2.8 3s-1.3 2.8-2.8 2.8zm-242.7-11l121.7-49c.8 1.2 2.2 2 3.6 2 1.2 0 2.3-.6 3.2-1.4l110 55.7v.5L427 312.6zm-1.8-2.4c-.8-.7-1.7-1-2.8-1-.8 0-1.5.2-2.2.6L384 279c.6-.8 1-1.8 1-3v-.8l103.5-36.5.7.7-64 70.4zm0 3.3c0 1.6-1.2 3-2.8 3s-2.8-1.4-2.8-3 1.3-2.7 3-2.7c1.5 0 2.8 1.3 2.8 3zm-114.5-45c1.3 0 2.4-.5 3.3-1.5l104.3 45c0 .3 0 .6-.2 1l-208.7 6.8c0-.2 0-.4-.2-.6l98.2-52.3c1 1 2 1.7 3.5 1.7zm-3-4.4c0-1.6 1.4-3 3-3s3 1.4 3 3-1.4 2.8-3 2.8c-1.4 0-2.7-1.3-2.7-3zm8.5 2l60 10.4c.2 2.4 2 4.3 4.5 4.3.7 0 1.5-.2 2-.5l36 30.3L316.3 266zM298 208l63-6.3c.2 2 2 3.7 4.2 3.7l13.4 67c-.4.2-.8.5-1 .8l-80.5-64c.4-.4.6-.8.8-1.3zm80.4-35.6l1 95.7-12.7-62.8c1.7-.6 3-2.2 3-4 0-1.8-1-3.2-2.4-4l10.7-25h.4zm40.4 25.2l7 36.6-.4.2-43-63.2 33 22.2c0 2 1.4 3.8 3.3 4.3zm1-7c1.6 0 3 1.2 3 2.8 0 1.5-1.4 2.8-3 2.8-1.4 0-2.7-1.3-2.7-2.8 0-1.5 1.4-2.8 3-2.8zm53-46.6c.2.3.7.5 1 .7l-4 31.7c-2.2 0-4 2-4 4.3v.7L424 192c0-.3 0-.6-.2-1l49-47zm6.8-2.3l44.4 4c0 1 .3 1.8.7 2.4l-30 26.4c-.6-.6-1.7-1-2.8-1h-.6l-13.5-29c.8-.6 1.5-1.5 1.8-2.5zm53 5L573 152c0 1 .4 2 1 2.7l-64.3 60-.7-.4 19.4-64.2c2 0 4-1.4 4.3-3.4zm46.6 9.2l27 47.8c-.7.8-1.3 2-1.3 3.2v.7l-93.4 10c0-.8-.4-1.4-.7-2l64.2-60c.7.3 1.5.6 2.3.6.7 0 1.3-.2 2-.4zm74.6-13c.5.2 1.2.4 2 .4 1.2 0 2.4-.7 3.2-1.6l110.3 28.7v.4c0 .3 0 .8.2 1.2l-157.2 63.3c-.3-.6-.7-1.2-1.2-1.6l43-91zm119.8 25c1.6 0 3 1.4 3 3 0 1.5-1.4 2.8-3 2.8-1.5 0-2.8-1.3-2.8-3 0-1.4 1.3-2.7 2.8-2.7zm45-35.6l-32.3 63h-.8c-.6 0-1 .2-1.4.3l-7.6-21.3c1-1 1.5-2 1.5-3.4 0-.6-.2-1-.4-1.6l40.8-37zm-110 149.3c-.7-.5-1.6-.8-2.4-.8-.7 0-1.5 0-2 .5l-20.8-34.8c1.2-.8 2-2.2 2-3.7 0-.3 0-.6-.2-1l96.6-40-73 79.6zM678 243c0-1.5 1.4-2.7 3-2.7 1.5 0 2.8 1.3 2.8 2.8 0 1.6-1.3 3-3 3-1.4 0-2.7-1.3-2.7-3zm-1.3-.8l-63-4.5 163-35-92 38c-1-1-2.2-1.8-3.8-1.8-2.2 0-4 1.4-4.4 3.4zM556 258.5c-.8-1.3-2.2-2.2-3.8-2.2-1.7 0-3.2 1-4 2.5l-10-4c.2-.4.3-.8.3-1.3v-.2l61.8-12.5-44.3 18zm-6.7 2c0-1.4 1.3-2.7 2.8-2.7 1.7 0 3 1.3 3 3s-1.3 2.8-2.8 2.8c-1.6 0-3-1.3-3-2.8zm-19-9.2L496 237l.3-1c0-2.5-2-4.5-4.4-4.5-1.7 0-3 .8-3.8 2l-19-7.8.2-1 34-4.6c.6 1.7 2 2.8 4 2.8.5 0 1 0 1.4-.3l22 28c0 .2-.3.5-.5.8zM380.6 279c-1.5 0-2.8-1.3-2.8-2.8s1.3-3 2.8-3c1.6 0 3 1.4 3 3s-1.4 2.8-3 2.8zm3.7-5.2l40.4-32.4c.7.7 1.7 1 2.8 1 2 0 3.8-1.5 4.2-3.4l56-1.6-103.4 36.3zm39.8-80.2l42.4-10.7c.5 1 1.4 1.6 2.4 2l-4.5 34.8c-1.2.2-2.2 1-2.8 2l-38.2-26c.4-.5.7-1.4.8-2.2zm46.2-15.6c1.6 0 3 1.3 3 3s-1.4 2.7-3 2.7c-1.5 0-2.8-1.3-2.8-2.8s1.3-3 3-3zm4.4 3.3l13.2-2c.3.8.8 1.5 1.6 2l-23 38.7h-.5l4.4-34.7c2.2 0 4-1.8 4.2-4zM492 175c1.4 0 2.7 1.3 2.7 2.8s-1.3 3-2.8 3c-1.6 0-3-1.4-3-3s1.4-2.7 3-2.7zm33.8-25.7c.3.3.6.5 1 .6l-19.3 64h-.2c-.4 0-1 0-1.3.2l-11.5-33c1-1 1.7-2 1.7-3.5 0-.8-.2-1.5-.5-2l30-26.5zm78.2 89L538 252c-.6-1.6-2-2.6-4-2.6-.6 0-1.3.2-2 .5l-21.8-28c.5-.2.8-.7 1-1l92.8 17.6zm4.7-26.8l-1 21.7c-2 .2-3.4 1.7-3.7 3.5l-91.8-17.5 93.3-10c.8 1 1.8 2 3.2 2zm2.4 26c0 1.6-1.2 2.8-2.7 2.8-1.5 0-2.8-1.3-2.8-3s1.3-2.7 3-2.7 2.8 1.3 2.8 2.8zm-100.8-19c0 1.4-1.3 2.7-3 2.7-1.4 0-2.7-1.3-2.7-3 0-1.5 1.3-2.8 3-2.8 1.4 0 2.7 1.3 2.7 2.8zm-7.2 0l-33.6 4.6c-.2-1-.8-2-1.7-2.5l23-38.5 1.2.2c.3 0 .7 0 1-.2l11.7 33c-1 .8-1.8 2-1.8 3.4zm-15.5 17.3l-55.6 1.5 29.4-10.8c1 1 2.2 2 3.7 2 1.4 0 2.6-.7 3.3-1.5l19.3 8v.6zM465 221.2c1.7 0 3 1.3 3 2.8s-1.3 2.8-3 2.8-2.7-1.3-2.7-3 1.3-2.8 3-2.8zM422 197l38.8 26v2l-29.5 11c-.7-1.5-2.2-2.4-3.8-2.4h-.4l-6.7-36c.6 0 1.2-.3 1.7-.6zm2.7 41c0-1.6 1.3-3 2.8-3 1.6 0 2.8 1.4 2.8 3s-1.3 3-2.8 3c-1.5 0-2.8-1.4-2.8-3zm64.4-2c0-1.6 1.4-3 3-3s2.8 1.3 2.8 3c0 1.4-1.3 2.7-2.8 2.7s-2.8-1.3-2.8-2.8zm45.2 14.6c1.5 0 2.8 1.3 2.8 2.8s-1.3 2.8-2.8 2.8c-1.6 0-3-1.3-3-2.8s1.4-2.8 3-2.8zm71-10.2c.7 1 1.8 1.4 3 1.4 2 0 3.5-1 4.2-2.7l60.6 4.5L558.6 259l46.4-18.7zm168.5-65c.5 0 1 0 1.4-.3l7.8 21.4c-1 .8-1.6 2-1.6 3.4v.2L617 235.4l153.3-61.7c.7 1 2 1.6 3.4 1.6zm9 24.4c0-1.5 1.3-2.8 2.8-2.8s3 1.3 3 3-1.4 2.7-3 2.7-2.8-1.3-2.8-3zm-173 33.5h-.4l1-22c2-.3 3.4-2 3.4-4.2 0-1-.3-1.8-.8-2.5l36-55.2-39.3 84zm-.4-29c1.6 0 3 1.3 3 2.8 0 1.6-1.4 3-3 3-1.5 0-2.8-1.4-2.8-3 0-1.5 1.3-2.8 3-2.8zm-78-58.5c0 1.5-1.3 2.8-2.8 2.8-1.5 0-2.8-1.3-2.8-3s1.3-2.7 3-2.7 2.8 1.2 2.8 2.7zm-55-1l13.6 29c-1.4.8-2.3 2.2-2.4 3.8l-13 2c-.4-1.4-1.5-2.5-3-3l4-31.6h1zM381 172l43.2 63.2c-.7.8-1 1.8-1 3 0 .6 0 1.4.4 2l-40.4 32.5c-.7-.5-1.5-.8-2.4-1l-1-99.4c.5 0 1 0 1.2-.2zm-13 29c0 1.6-1.3 3-2.8 3-1.6 0-3-1.4-3-3 0-1.5 1.4-2.8 3-2.8 1.5 0 2.8 1.3 2.8 2.8zM490.7 240l1.2.2c1.4 0 2.7-.7 3.5-2l34.3 14.5v.7c0 2.4 2 4.3 4.3 4.3 1.6 0 3-.7 3.7-1.7l10 4.2v.4c0 .4 0 .7.2 1L426 311v-.2l64.6-70.8zM666 318L556 262.4l.4-1.4L677 244.5c.3 1.2 1 2 2.2 2.5l-9.5 69c-1.6 0-3 .8-3.8 2zm6.6-1l-1.3-.8 9.4-68.8h1.3l21 35c-.6.7-1 1.8-1 3 0 1 .3 1.7.8 2.5l-30 29zm30.8-31.7c0-1.6 1.3-3 3-3s2.8 1.4 2.8 3-1.3 2.7-2.8 2.7-2.8-1.3-2.8-3zm6.4-2.6l73.2-79.5c.8.6 1.7 1 2.7 1 1.5 0 3-1 3.7-2l89.4 29.6v1.1l-168.5 50.6-.5-1zm169.4-52.2l-89.4-29.7v-1.6l55.8-18c.7 1.4 2.2 2.3 4 2.3.4 0 .8 0 1.2-.2l29.4 46-1 1zm38.7 8.7l-30.7-6.5c0-2.4-2-4.3-4.3-4.3-.5 0-1 0-1.4.2l-29-45.4 65.7 55.4s0 .3-.2.5zm-35-9.3c1.6 0 3 1.2 3 2.7 0 1.5-1.4 2.8-3 2.8s-2.7-1.3-2.7-2.8c0-1.6 1.3-3 3-3zm21 101.5l-19.2-94.7c1-.6 2-1.4 2.3-2.6l30.8 6.5c0 1.7 1.2 3.2 2.8 3.8l-16.4 87zm15.2-91c0-1.6 1.3-3 3-3 1.5 0 2.8 1.4 2.8 3 0 1.4-1.3 2.7-2.8 2.7-1.5 0-2.8-1.3-2.8-3zM849.4 182c-1.5 0-2.8-1.3-2.8-2.8 0-1.6 1.3-3 2.8-3 1.6 0 3 1.4 3 3 0 1.4-1.4 2.7-3 2.7zm-26-48.8l23 42.8c-.8.8-1.4 2-1.4 3.2v.6l-55.6 18c-.3-1-1-1.4-1.6-1.8l32.2-62.8c.5.2 1 .3 1.6.3.6 0 1 0 1.6-.3zm-167.7 8.6c-1.5 0-2.8-1.3-2.8-2.8 0-1.6 1.2-2.8 2.7-2.8s3 1.3 3 2.8c0 1.5-1.4 2.8-3 2.8zm-46-59.3l-.8 120c-.5 0-1 .2-1.3.4l-27.2-48c.8-1 1.3-2 1.3-3.2 0-1.4-.5-2.5-1.5-3.3l29.2-66h.2zM580 152c0 1.4-1.3 2.7-2.8 2.7-1.5 0-2.8-1.3-2.8-3 0-1.4 1.3-2.7 2.8-2.7s3 1.3 3 2.8zm-7-1.4l-40.4-5.5c-.2-1-.6-1.7-1.2-2.3l30-48.5c.4.2 1 .3 1.3.3l13 53.2c-1.3.4-2.3 1.5-2.7 2.8zM563 93c-1.6 0-2.8-1.4-2.8-3 0-1.5 1.3-2.8 3-2.8 1.5 0 2.8 1.3 2.8 3 0 1.5-1.3 2.8-3 2.8zm-84.8 47.6c0 1.5-1.2 2.8-2.8 2.8-1.5 0-2.8-1.3-2.8-2.8 0-1.6 1.3-3 2.8-3 1.6 0 3 1.4 3 3zM382 168c0 1.4-1.4 2.7-3 2.7-1.4 0-2.7-1.2-2.7-2.8 0-1.6 1.3-3 2.8-3 1.7 0 3 1.4 3 3zm-5.4 3.5l-11 25h-.5c-2 0-3.7 1.5-4 3.5l-62.8 6 77-35.7c.5.5 1 1 1.4 1.2zm-70.4 92.7c0 .3 0 .6.2.8l-98.2 52.4-1-1 27.5-61.2c1.8 0 3.3-1 4-2.6L306 264zm-98.4 56.2c0 1.5-1.3 2.8-3 2.8-1.4 0-2.7-1.3-2.7-3s1.3-2.8 3-2.8c1.4 0 2.7 1.3 2.7 2.8zm27-66.7c-1.5 0-2.8-1.3-2.8-3 0-1.4 1.3-2.7 2.8-2.7s2.8 1.3 2.8 3-1.3 2.8-2.8 2.8zm-78 67.7c0 1.5-1.3 2.8-3 2.8-1.4 0-2.7-1.2-2.7-2.8s1.3-2.8 3-2.8c1.4 0 2.7 1.3 2.7 3zm-5.6 3.4c.8.6 1.7 1 2.7 1s2-.4 2.6-1l23.8 27.3c-.8 1-1.4 2-1.4 3L73.8 377.5l-.3-.4 77.7-52.2zm257.2 52.5c1.5 0 2.8 1.3 2.8 2.8s-1.3 3-2.8 3c-1.5 0-2.8-1.3-2.8-2.8s1.3-2.8 2.8-2.8zm1.2-1.4l13.3-58.5c1.8-.3 3.3-1.8 3.6-3.6l237.2 7.4-251.2 57.3c-.5-1.3-1.6-2.4-3-2.8zM827 314.6c0-1.6 1.2-2.8 2.8-2.8 1.5 0 2.8 1.2 2.8 2.7 0 1.5-1.3 2.8-3 2.8-1.5 0-2.8-1.3-2.8-3zm74.6 21c0-1.4 1.3-2.7 3-2.7 1.4 0 2.7 1.3 2.7 2.8 0 1.6-1.2 2.8-2.8 2.8-1.5 0-2.8-1.3-2.8-2.8zm108-105.8c-1.6 0-3-1.3-3-3 0-1.4 1.4-2.7 3-2.7s2.8 1.3 2.8 3c0 1.5-1.3 2.8-2.8 2.8zm-47.4-66c-1.6 0-3-1.3-3-2.8 0-1.6 1.4-3 3-3 1.5 0 2.8 1.4 2.8 3 0 1.5-1.2 2.8-2.8 2.8zm-4.4-3l-104.3 17c-.3-1.2-1-2-2-2.6l17.3-41.5h1.2c1.3 0 2.5-.6 3.4-1.6L958 160l-.2 1zM870 132.7c-1.6 0-3-1.3-3-2.8s1.4-3 3-3c1.5 0 2.8 1.4 2.8 3 0 1.5-1.3 2.8-2.8 2.8zm-45.6-3.4c0 1.6-1.3 3-3 3-1.4 0-2.7-1.4-2.7-3 0-1.5 1.3-2.8 3-2.8 1.5 0 2.8 1.3 2.8 2.8zm-192-10.5c-1.5 0-2.7-1.3-2.7-3 0-1.4 1.2-2.7 2.8-2.7 1.5 0 2.8 1.3 2.8 3s-1.3 2.8-3 2.8zm-19.2-40.5c0 1.6-1.3 3-3 3-1.4 0-2.7-1.4-2.7-3 0-1.5 1.3-2.8 3-2.8 1.5 0 2.8 1.3 2.8 2.8zM608 82l-29 65.7-1.4-.3-13-53.3c1.6-.6 2.8-2 2.8-4l39-9.8c.4.7 1 1.2 1.6 1.7zm-125.7 32l-6.6 22h-.3c-1.8 0-3.4 1-4 2.7l-55.5-16.2c0-.3 0-.4-.2-.6l64.4-10c.4.8 1.2 1.5 2 2zm-70.8 5.6c1.5 0 2.8 1.3 2.8 2.8 0 1.5-1.3 2.8-2.8 2.8-1.6 0-2.8-1.3-2.8-3s1.3-2.7 2.8-2.7zm-30.7 44c-.5 0-1-.3-1.8-.3-1.6 0-3 .8-3.7 2L336.5 153v-.5-1l71.2-27 .4.7-27.2 38.5zM295 113.4l33.7 36.2c-.6.7-1 1.6-1 2.6 0 1.2.5 2.2 1.2 3l-33 47.5c-.5-.3-1-.6-1.6-.7l-1.4-88c.6 0 1.4-.2 2-.5zm-1.5 90c1.6 0 3 1.4 3 3s-1.4 2.7-3 2.7c-1.5 0-2.8-1.3-2.8-3s1.3-2.8 2.8-2.8zM152.7 214l77.8 36v2L175 269.4c-.3-2-2-3.4-4-3.4h-1l-19-51c.7-.3 1.2-.7 1.6-1.2zm18.2 53.7c1.4 0 2.7 1.3 2.7 2.8s-1.3 3-2.8 3c-1.7 0-3-1.4-3-3 0-1.5 1.3-2.8 3-2.8zm-56 55c0 1.4-1.3 2.7-2.8 2.7s-3-1.3-3-2.8 1.4-2.8 3-2.8c1.5 0 2.8 1.3 2.8 2.8zm-4.8 3.8c.6.3 1.2.5 2 .5 2 0 4-1.6 4.2-3.6l33.2-.8c0 .4.3.8.5 1.3L72.7 376l37.6-49.6zm-37.4 53.3c0 1.5-1.3 2.8-2.8 2.8-1.6 0-3-1.3-3-2.8 0-1.6 1.4-3 3-3s2.8 1.4 2.8 3zm26 66.7c1.6 0 2.8 1.3 2.8 2.8 0 1.7-1.3 3-2.8 3s-2.8-1.3-2.8-3c0-1.4 1.3-2.7 3-2.7zm2-1c-.6-.4-1.3-.5-2-.5-.5 0-1 0-1.4.2L72 383.5c1.4-.7 2.5-2.2 2.5-4v-.5L179 356.7c.2.5.4 1 .8 1.5l-79 87zm108.3-16.5c1.6 0 3 1.2 3 2.8s-1.4 2.8-3 2.8c-1.5 0-2.8-1.3-2.8-3s1.3-2.8 3-2.8zm0-1.6H208l-22-68.5c.8-.5 1.3-1.2 1.6-2L302 397.2v.7s0 .3.2.5l-89 31c-.8-1.5-2.3-2.6-4-2.6zm93.6-27c.8 1.3 2.2 2.2 3.8 2.2 1.6 0 3-.8 3.7-2l89 37.6-185.6-6.6v-.3l89.2-30.8zm8-1.2l.2-1 93.6-16c.5.8 1.3 1.6 2.2 2l-4 50.4c-1.3 0-2.5 1-3.2 2L310.6 399zm92.6 37c1.6 0 3 1.2 3 2.7 0 1.5-1.4 2.8-3 2.8s-3-1.3-3-3 1.4-2.8 3-2.8zm1-1.6l4-50h.2c2 0 3.5-1.3 4-3l202 11.6-207 44.3c-.5-1.4-1.7-2.4-3.2-2.8zm213.4-40.6c.8 1 2 1.8 3.6 1.8s3-1 3.7-2.2l120.3 6.8-327 36 199.3-42.5zm8-1.8v-1.2l75.3-34.8c.7 1.2 2 2 3.6 2 1.2 0 2.4-.4 3-1.2l42.5 40c-.3.7-.6 1.4-.7 2.2l-123.8-7zm76.2-38.3c0-1.6 1.3-3 2.8-3s3 1.4 3 3-1.4 2.7-3 2.7-2.7-1.3-2.7-2.8zm6.8 1.8c.2-.6.4-1.2.4-1.8 0-2.5-2-4.4-4.4-4.4-.7 0-1.4.2-2 .5l-29-27.6.3-1 151.5-6.3c0 .5.3 1 .6 1.6l-69 79.8c-1-.8-2-1.3-3.2-1.3-.8 0-1.6.3-2.3.7L709 355.4zm45 41.2c1.5 0 2.8 1.3 2.8 2.8s-1.3 2.8-2.8 2.8c-1.6 0-3-1.3-3-3s1.4-2.8 3-2.8zm97.6 41.5c0-1.6 1.2-3 2.8-3s2.8 1.4 2.8 3-1.3 2.7-2.8 2.7c-1.6 0-2.8-1.4-2.8-3zm139.8-18l147.8-64.2c.6 1 1.5 1.6 2.7 2l-20 97.4c-2 0-3.7 1.3-4.2 3l-126-36v-.8-1.5zm130.3 36.8c1.6 0 3 1.3 3 2.8 0 1.5-1.4 2.8-3 2.8s-3-1.3-3-3c0-1.5 1.4-2.8 3-2.8zm24-103.3c0 1.5-1.2 2.8-2.8 2.8-1.5 0-2.8-1.3-2.8-3s1.3-2.8 3-2.8c1.5 0 2.8 1.3 2.8 2.8zm-26.5-82.2c1.6 0 3 1.3 3 2.8s-1.4 2.8-3 2.8-2.7-1.2-2.7-2.8 1.4-2.8 3-2.8zm0 7.2h1l21.5 70.8c-.4 0-.7.3-1 .5l-76.3-56.5c.4-.6.6-1.3.6-2v-.2l51-14.3c.7 1 2 1.7 3.4 1.7zm-4-6c-.2.5-.3 1-.3 1.6 0 .4 0 .8.2 1.2l-50.5 14c-.6-1.5-2.2-2.7-4-2.7-2.4 0-4.4 2-4.4 4.3v.8l-147.4 41.4-.2-.4 128.8-106c.6.3 1.3.4 2 .4 1.4 0 2.6-.6 3.4-1.6L1115 273zm-73-50c0 1.6-1.2 3-2.7 3-1.4 0-2.7-1.4-2.7-3s1.3-3 3-3 2.7 1.4 2.7 3zm-7 0v.4l-20.8 3.2c-.3-2-2-3.7-4.3-3.7L998 159.3l.7-.3 38 60c-1 .8-2 2.2-2 3.8zm-38.5-70.3c1.6 0 3 1.3 3 2.8s-1.4 2.8-3 2.8-2.7-1.3-2.7-2.8c0-1.6 1.3-3 3-3zm-4.2 2v.8l-25.5 4.2c-.6-1.7-2.2-3-4-3-1 0-2 .4-3 1l-47-29.7 79.6 26.6zm-84.7-33c1.6 0 3 1.4 3 3s-1.4 2.7-3 2.7-2.7-1.2-2.7-2.7 1.3-3 3-3zm-4.2 1.8v1.4l-28.5 3.6c-.5-2-2.2-3.2-4.2-3.2-.7 0-1.3.2-2 .4l-29-48.7.6-.4 63 47zM837 70.5c1.6 0 3 1.3 3 2.8s-1.4 2.8-3 2.8-2.7-1.2-2.7-2.7 1.4-3 3-3zm-1.8 7l-13 47h-.2c-1 0-1.7.3-2.3.8L749 67l.3-1 83 7.6c0 1.7 1 3.2 2.5 3.8zm-90-15.2c1.6 0 3 1.3 3 2.8s-1.4 3-3 3c-1.4 0-2.7-1.4-2.7-3s1.3-3 3-3zm-88.3-24l84 26V66l-104.2 48c-.4-1-1.3-2-2.3-2.4l18.7-71c1.5 0 3-1 3.6-2.5zm-4-4.8c1.6 0 3 1.3 3 2.8 0 1.5-1.4 2.8-3 2.8-1.5 0-2.7-1.2-2.7-2.8s1.3-2.8 3-2.8zm-4 4.7l.8 1L613 75c-.7-.6-1.6-1-2.6-1-1.5 0-3 1-3.6 2L563 54c.2-.2.2-.6.2-1l85.4-14.6zM559 50c1.5 0 2.8 1.3 2.8 2.8s-1.3 3-3 3c-1.4 0-2.7-1.4-2.7-3 0-1.5 1.4-2.8 3-2.8zm-88.4 0l84 3.2c0 .7.3 1.4.6 2l-67.6 52c-.8-1-2-1.5-3.3-1.5h-.6l-15.3-52c1.4-.8 2.3-2.2 2.3-3.8zm-4.3-3c1.5 0 2.8 1.3 2.8 2.8s-1.2 3-2.8 3-3-1.4-3-3 1.3-2.8 3-2.8zm-3.8 5c.7 1.4 2 2.2 3.8 2.2h.6l15.2 52c-1 .6-1.8 1.5-2 2.6l-79.7-19.2V89c0-.5 0-1-.3-1.5L462.4 52zM396 86.2c1.7 0 3 1.3 3 2.8 0 1.6-1.4 3-3 3-1.5 0-2.8-1.4-2.8-3s1.4-3 3-3zm-4 4.6c.8 1.5 2.3 2.6 4 2.6h1l11.8 25.7c-.8.6-1.3 1.4-1.5 2.3l-110-12.3L392 90.8zm-99 16c1.6 0 3 1.3 3 2.8 0 1.6-1.4 3-3 3-1.4 0-2.7-1.4-2.7-3s1.3-3 3-3zm-1.5 7L293 202c-1.3 0-2.3.8-3 1.8l-51.2-31c.3-.6.4-1.3.4-2 0-.8-.2-1.6-.6-2.2l51.4-56c.4.4 1 .7 1.5 1zM235 168c1.4 0 2.7 1.4 2.7 3 0 1.5-1.3 2.8-3 2.8s-2.7-1.3-2.7-3c0-1.5 1.3-2.8 2.8-2.8zm-3.3 6c.8.8 2 1.3 3.2 1.3 1 0 2-.4 2.8-1l51.5 31.2-.2 1v.3l-135.4 3.8v-.4l78-36.2zm-82.3 34.3c1.5 0 2.8 1.3 2.8 3s-1.3 2.8-2.8 2.8-3-1.2-3-2.8 1.4-3 3-3zm-1 7.2h1.4l18.8 51.3c-1.2.8-2 2-2 3.7 0 .6 0 1.2.4 1.7l-41 13c-.3-.8-.8-1.5-1.5-2l24-67.7zM122 284c1.5 0 2.8 1.4 2.8 3 0 1.4-1.3 2.7-2.8 2.7-1.6 0-3-1.3-3-2.8 0-1.7 1.4-3 3-3zm-2.6 6.4l1.3.7-8 27h-.4c-2.5 0-4.4 2-4.4 4.4v1L54.8 343l64.6-52.6zm-64.6 54.3l53.7-20 .4.6-38 50h-1c-.7 0-1.4 0-2 .3L53 348c1-.7 1.6-2 1.7-3.3zm-7.2 0c0-1.7 1.2-3 2.8-3 1.5 0 2.8 1.4 2.8 3 0 1.4-1.3 2.7-2.8 2.7-1.6 0-3-1.3-3-2.8zm2.8 80.5c1.5 0 2.8 1.3 2.8 2.8 0 1.6-1.3 3-2.8 3-1.6 0-3-1.4-3-3 0-1.5 1.4-2.8 3-2.8zm-1.6 7l1.6.2c1.3 0 2.6-.7 3.4-1.6l40.7 17.6v.7c0 .5 0 1 .2 1.3L9 496.3 48.7 432zm-39 65.3l85.5-45.7c1 1 2 1.7 3.5 1.7s2.8-.7 3.5-1.7l115 45.8H10zm93.3-47l.2-1.2 102-15.8c.5 1.3 1.8 2.3 3.3 2.5l12 61L103 450.4zm119 47L210 436c.8-.3 1.5-.6 2-1.2l127.6 62.8H222zm-9-64l.2-.4 185.7 6.7c0 .6.3 1.2.6 1.7l-56.8 56-129.8-64zm132 64l55.8-55c.7.5 1.5.8 2.4.8 1.8 0 3.2-1 4-2.3l210 56.6H345zm62.6-58l342-37.8c.2.5.5 1 .8 1.2L623 497.5l-215.4-58zm217.8 58L751.8 404c.5.3 1 .4 1.8.4.4 0 1 0 1.3-.2l28.3 93.7h-158zm131-94.3l.8-1 92.4 36v.3c0 1 .3 2 .8 2.6L785 497l-28.7-93.7zm30.2 94.5l65-55.6c.7.6 1.5 1 2.4 1 1.4 0 2.6-.7 3.4-1.8l170.2 56.5h-241zm71.6-57.8v-.5l124.5-16.2c.5 2 2.2 3.2 4.2 3.2h.6l43 70.8L858.2 440zm131-14c.5-.4 1-1 1.5-1.7l126.3 36.2c0 .5 0 1 .3 1.4l-84.5 35.7L989 426zm47 71.8l82-34.6c.7 1 1.8 1.5 3 1.5s2.3-.4 3-1l60 34.2h-148zm150.2-.5l-61.2-35c.3-.6.5-1.2.5-2v-.8l61.8-35.5c.7 1 1.8 1.5 3 1.6l-4 71.8zm4.5-73.3c-1.7 0-3-1.3-3-2.8s1.4-3 3-3c1.4 0 2.7 1.4 2.7 3s-1.3 3-2.8 3z"/></svg>