<svg xmlns="http://www.w3.org/2000/svg" width="288" height="259" viewBox="-13.3 -21.8 288 259"><style>.a{fill:white;}</style><path d="M130.3 2.5c-44.7 0-80.9 36.2-80.9 80.9 0 34.7 21.8 64.3 52.5 75.8l18.6-49.7c-10.5-4-18-14.1-18-26 0-15.4 12.5-27.8 27.8-27.8 15.4 0 27.8 12.5 27.8 27.8 0 11.9-7.5 22.1-18 26l18.6 49.7c30.7-11.5 52.5-41.1 52.5-75.8C211.2 38.7 175 2.5 130.3 2.5z" style="fill:#40AA54;stroke-linejoin:round;stroke-width:5;stroke:#20552A"/><path d="M209.5 139.2v15h-3.1v-15h-5.1v-2.4h13.3v2.4H209.5z" class="a"/><path d="M234.1 145.6c0-0.1-0.1-0.5-0.2-1.1 -0.1-0.5-0.1-0.9-0.2-1.2 -0.1 0.4-0.2 0.8-0.3 1.2 -0.1 0.4-0.3 0.8-0.5 1.2l-5 9.2 -5-9.4c-0.2-0.4-0.4-0.8-0.5-1.1 -0.2-0.4-0.3-0.7-0.4-1.1 0 0.4 0 0.7-0.1 1.1 -0.1 0.4-0.1 0.8-0.3 1.3l-2.1 8.5h-2.9l4.6-18.1 5.7 11c0.1 0.2 0.2 0.5 0.4 0.9 0.2 0.4 0.4 0.9 0.7 1.5 0.2-0.5 0.5-1.1 0.9-1.9 0.1-0.2 0.2-0.4 0.2-0.5l5.6-10.9 4.7 18.1H236.2L234.1 145.6z" class="a"/><path d="M18.2 199c0 3.3-2.7 6.1-6.1 6.1 -3.4 0-6.1-2.8-6.1-6.1v-8.8c0-3.3 2.7-6.1 6.1-6.1 3.4 0 6.1 2.8 6.1 6.1V199zM24.3 199v-8.8c0-6.8-4.8-11.5-12.1-11.5S0 183.4 0 190.3v8.8c0 6.9 4.8 11.5 12.1 11.5S24.3 205.9 24.3 199z" class="a"/><path d="M45.8 198.3c0 3.3-2.6 6.1-6.1 6.1 -3.4 0-6.1-2.8-6.1-6.1v-7.4c0-3.3 2.7-6.1 6.1-6.1 3.4 0 6.1 2.8 6.1 6.1V198.3zM51.9 198.3v-7.4c0-6.8-4.9-11.5-11.7-11.5 -4 0-5.9 2.2-6.7 2.2 -0.3 0-0.5-0.3-0.5-0.7v-0.8c0-0.5-0.2-0.7-0.7-0.7h-4c-0.5 0-0.7 0.2-0.7 0.7v44.2c0 0.5 0.2 0.7 0.7 0.7h4.7c0.5 0 0.7-0.2 0.7-0.7v-16c0-0.5 0.2-0.7 0.5-0.7 0.6 0 2.6 2.2 6.5 2.2C47.1 209.8 51.9 204.9 51.9 198.3z" class="a"/><path d="M71.9 190.9H61.1c-0.6 0-0.7-0.3-0.7-1 0-3 2.8-5.7 6.1-5.7 3.2 0 6.1 2.7 6.1 5.6C72.5 190.6 72.5 190.9 71.9 190.9zM78.6 195v-4.7c0-6.1-5.4-11.5-12.1-11.5 -6.7 0-12.1 5.3-12.1 11.5v8.8c0 6.9 4.8 11.5 12.1 11.5 3.6 0 6.4-0.9 8.4-2.8 2-1.9 2.8-3.6 2.8-4.1 0-0.2-0.1-0.3-0.4-0.5l-4.2-2.2c-0.1-0.1-0.3-0.1-0.4-0.1 -0.4 0-1 1.1-2.5 2.8 -0.7 0.9-2.1 1.5-3.7 1.5 -3.4 0-6.1-2.8-6.1-6.1v-2.7c0-0.5 0.2-0.7 0.7-0.7h16.9C78.4 195.6 78.6 195.4 78.6 195z" class="a"/><path d="M105.1 209.8h-4.7c-0.5 0-0.7-0.2-0.7-0.7v-18.2c0-3.3-2.6-6.1-6.1-6.1 -3.4 0-6.1 2.8-6.1 6.1v18.2c0 0.5-0.2 0.7-0.7 0.7h-4.7c-0.5 0-0.7-0.2-0.7-0.7v-29c0-0.5 0.2-0.7 0.7-0.7h4c0.5 0 0.7 0.2 0.7 0.7v0.8c0 0.5 0.2 0.7 0.5 0.7 0.9 0 2.8-2.2 6.7-2.2 6.8 0 11.7 4.7 11.7 11.5v18.2C105.8 209.6 105.6 209.8 105.1 209.8z" class="a"/><path d="M122.6 187.4c0 2.8 2.1 4 6.7 5.1 7.8 1.7 12.1 2.7 12.1 8.4 0 5.7-4.2 9.7-10.7 9.7h-2.1c-6.3 0-10.4-3.8-10.4-5.9 0-0.2 0.1-0.3 0.5-0.5l2.6-1.3c0.1-0.1 0.3-0.1 0.3-0.1 0.2 0 0.3 0.1 0.5 0.3 1.8 2 3.1 3.8 6.4 3.8h2.1c3.8 0 6.2-2.2 6.2-4.9 0-2.5-2.1-4-6.6-4.9 -7.8-1.6-12.1-2.4-12.1-8.4 0-5.5 4.1-9.4 10.4-9.4h2.1c6.1 0 10.3 3.7 10.3 5.7 0 0.2-0.2 0.3-0.5 0.5l-2.6 1.3c-0.1 0.1-0.2 0.1-0.3 0.1 -0.2 0-0.3-0.1-0.5-0.3 -1.9-2-3.4-3.6-6.5-3.6h-2.1C124.7 182.9 122.6 184.6 122.6 187.4z" class="a"/><path d="M163.2 199.4c0 3.9-3.2 7.2-7.2 7.2 -4 0-7.1-3.3-7.1-7.2v-9.1c0-4 3-7.1 7.1-7.1 4 0 7.2 3.3 7.2 7.1V199.4zM167.8 199.4v-9.1c0-6.5-4.7-11-11.8-11 -7.1 0-11.7 4.3-11.7 11v9.1c0 6.7 4.5 11.1 11.7 11.1C163.1 210.5 167.8 206 167.8 199.4z" class="a"/><path d="M194.1 209.8h-2.5c-0.5 0-0.7-0.2-0.7-0.7v-2.9c0-0.5-0.3-0.7-0.5-0.7 -0.6 0-1.3 1.1-2.5 2.3 -1.3 1.3-3.4 2-5.6 2 -6.1 0-11-4.5-11-11.1v-18.1c0-0.5 0.2-0.7 0.7-0.7h3.2c0.5 0 0.7 0.2 0.7 0.7v18.1c0 3.9 3.2 7.2 7.1 7.2 4.2 0 7.3-3.2 7.3-7.2v-18.1c0-0.5 0.2-0.7 0.7-0.7h3.2c0.5 0 0.7 0.2 0.7 0.7v28.4C194.8 209.6 194.6 209.8 194.1 209.8z" class="a"/><path d="M215.2 184.8c-0.5 0-1.4-0.2-2.6-0.2 -4.1 0-7.1 3.1-7.1 7.1v17.5c0 0.5-0.2 0.7-0.7 0.7h-3.2c-0.5 0-0.7-0.2-0.7-0.7v-28.4c0-0.5 0.2-0.7 0.7-0.7h2.5c0.5 0 0.7 0.2 0.7 0.7v3.4c0 0.5 0.3 0.7 0.5 0.7 0.7 0 1.8-1.7 4.2-3.6 0.7-0.6 2.2-1.1 3.1-1.1h2.5c0.5 0 0.7 0.2 0.7 0.7v3.4C215.8 184.7 215.7 184.8 215.2 184.8z" class="a"/><path d="M237.8 204.5c0 2.2-4.1 5.9-10.4 5.9 -7.1 0-11.7-4.4-11.7-11.1v-9.1c0-6.7 4.5-11 11.7-11 6.3 0 10.5 3.6 10.5 5.8 0 0.2-0.2 0.4-0.5 0.5l-2.8 1.4c-0.1 0.1-0.2 0.1-0.3 0.1 -0.2 0-0.3-0.1-0.5-0.3 -2-1.9-3.4-3.7-6.4-3.7 -4.1 0-7.1 3.2-7.1 7.1v9.1c0 3.9 3.1 7.2 7.1 7.2 1.6 0 3.2-0.7 4.4-1.8 1.4-1.3 2-2.3 2.4-2.3 0.1 0 0.2 0 0.3 0.1l2.8 1.4C237.7 204.1 237.8 204.3 237.8 204.5z" class="a"/><path d="M259.1 191.3c0 0.5-0.2 0.7-0.7 0.7h-13c-0.5 0-0.7-0.2-0.7-0.7v-0.9c0-4 3-7.1 7.1-7.1 4 0 7.2 3.3 7.2 7.1V191.3zM263.7 194.4v-4.1c0-5.8-5.3-11-11.8-11 -3.4 0-6.3 1.2-8.5 3.6 -2 2.2-3.2 4.9-3.2 7.4v9.1c0 6.7 4.5 11.1 11.7 11.1 6.3 0 10.5-3.8 10.5-5.9 0-0.3-0.1-0.4-0.4-0.5l-2.8-1.4c-0.1-0.1-0.3-0.1-0.3-0.1 -0.4 0-1 0.9-2.4 2.3 -1.2 1.1-2.8 1.8-4.4 1.8 -4 0-7.1-3.3-7.1-7.2v-3.6c0-0.5 0.2-0.7 0.7-0.7h17.6C263.5 195.1 263.7 194.9 263.7 194.4z" class="a"/></svg>