<svg xmlns="http://www.w3.org/2000/svg" width="110" height="80"><style>.a{fill:white;}</style><g xmlns="http://www.w3.org/2000/svg"><path d="M16.5 1.2C10.5 3 3 10.6 1 16.2c-2.4 8.3-1.3 13 8 33.4 4.2 9 5.4 12 5.4 15 0 2.6.3 4 1 4l10.2-1 9.3-1v-2.8c.2-1.5 3-9 6.4-16.7 3.2-7.7 6.3-15.5 6.8-17.4 5-18-12.8-34-31.8-28.4zM34 5.5c6.4 3.2 11 9.3 11.6 16 .5 4.3-1.2 9.8-9 27.8l-5 11.7H18.2L14 51.2C1.5 24.7 1 19 8.6 10.5 15 3.5 26.2 1.3 34 5.3M66.4 51.6c-1.2 1-.7 3.5.8 4 2 .6 3.2-.6 2.8-2.6-.4-1.7-2.5-2.5-3.6-1.4M98.6 53.2c-1.2 1.3-.6 21.6.8 23.5 1.6 2.3 5.5 3 8.6 2 3.6-1.2 2.4-3-2-3h-4l-.3-7-.2-6.7h4c3.5 0 4-.3 4-1.8 0-1.6-.4-1.7-4-1.4l-3.8.4V56c0-3.2-1.2-4.3-2.8-2.8zM44.2 59.8c-.7 2 .3 14.4 1.4 16.4 1.3 2.3 6 3.5 10.5 2.8l4-.7.2-9.8c.3-9.4.2-10-1.5-10s-1.7.6-1.7 9v8.8h-3.4c-4.7 0-5.6-1.5-6.2-9.8-.4-7-2-10-3.2-6.5M66.6 68.6c0 9 0 10 1.6 10 2.3 0 2.3-19.5 0-20-1.3 0-1.5.7-1.5 10M79 59.8c-6.5 4.4-5.8 15.8 1 18.5 8.4 3.3 15.2-3.8 12.7-13-1.6-6-8.7-8.7-13.7-5.5zm7.7 2.3c3.8 2.8 4.5 8.5 1.7 11.8-4 4.8-10.4 1.4-10.4-5.5 0-5.3 5-9 8.7-6.2M28 70c-2.8.5-7 1-9.4 1.2-3.7.5-6.4 3.3-3 3 8.4 0 19.8-2 19.8-3.4 0-.8-.5-1.5-1-1.3l-6.3.7M29 75.8c-.6.2-3.8.5-6.8.8-5 .5-5.5.6-4.2 1.7 2 2 11 2.2 14 .3 4.2-2.5 2.7-4-3-2.8" class="a"/></g></svg>