<svg xmlns="http://www.w3.org/2000/svg" width="110" height="80"><style>.a{fill:white;}</style><g xmlns="http://www.w3.org/2000/svg" transform="matrix(1.25 0 0 -1.25 -0.14117203 79.956053)"><path d="m13.3 63c-4.7-1.4-10.9-7.5-12.3-12.1-2-6.5-1.1-10.4 6.4-26.6 3.3-7.1 4.2-9.7 4.2-12.1 0-2 0.3-3 0.8-3 0.5 0 4.2 0.4 8.2 0.8l7.4 0.7 0.2 2.2c0.1 1.2 2.4 7.2 5 13.4 2.6 6.2 5.1 12.5 5.5 14 4 14.5-10.3 27.2-25.5 22.7l0 0zm14-3.4c5.1-2.6 8.7-7.5 9.3-12.8 0.4-3.5-1-7.9-7.3-22.3l-4-9.3-5.3 0-5.2 0-3.6 7.8c-9.8 21.2-10.3 25.8-4.1 32.6 5 5.5 14 7.3 20.2 4.1" class="a"/><path d="m53.2 22.7c-0.9-0.9-0.5-2.8 0.7-3.2 1.5-0.5 2.5 0.5 2.2 2.1-0.3 1.3-2 2-2.9 1.1" class="a"/><path d="m79 21.4c-1-1-0.5-17.3 0.6-18.8 1.3-1.8 4.4-2.5 6.9-1.6 2.9 1 1.9 2.4-1.7 2.4l-3.1 0-0.2 5.5-0.2 5.5 3.2 0c2.8 0 3.2 0.2 3.2 1.4 0 1.3-0.3 1.4-3.1 1.1l-3.1-0.3 0 2.6c0 2.5-1 3.4-2.3 2.2l0 0z" class="a"/><path d="m35.5 16.1c-0.6-1.5 0.2-11.5 1.1-13.1 1-1.8 4.7-2.8 8.4-2.2l3.1 0.5 0.2 7.9c0.2 7.5 0.1 7.9-1.2 7.9-1.4 0-1.4-0.4-1.4-7.1l0-7.1-2.7 0c-3.8 0-4.5 1.2-5 7.9-0.3 5.6-1.5 7.9-2.5 5.2" class="a"/><path d="m53.4 9.1c0-7.3 0.1-8.1 1.3-8.1 1.8 0 1.8 15.7 0 16-1.1 0.2-1.2-0.5-1.2-7.9" class="a"/><path d="m63.3 16.1c-5.2-3.5-4.6-12.6 0.9-14.8 6.6-2.6 12.1 3.1 10.1 10.4-1.3 4.8-7 7-11 4.4l0 0zm6.2-1.8c3-2.2 3.6-6.7 1.3-9.4-3.1-3.8-8.3-1.1-8.3 4.4 0 4.3 4.1 7.3 7 5" class="a"/><path d="m22.6 7.9c-2.3-0.3-5.8-0.7-7.6-0.9-3-0.4-5.1-2.6-2.4-2.5 6.7 0.2 15.8 1.8 15.8 2.8 0 0.7-0.4 1.2-0.8 1.1-0.5 0-2.7-0.3-5-0.6" class="a"/><path d="m23.3 3.3c-0.5-0.1-3-0.4-5.4-0.6-4.1-0.4-4.4-0.5-3.4-1.4 1.7-1.6 8.7-1.7 11.3-0.2 3.3 2 2.1 3.1-2.4 2.2" class="a"/></g></svg>